<svg width="277" height="581" viewBox="0 0 277 581" fill="none" xmlns="http://www.w3.org/2000/svg">
<path d="M217.469 180.024C222.307 150.536 196.071 136.139 197.031 95.0786C187.871 92.3973 173.167 86.5653 168.426 81.5866C161.517 74.3346 160.622 67.0599 160.078 62.2306C159.461 56.7653 149.95 56.9559 143.754 57.1479C141.921 57.2039 140.378 57.2599 139.442 57.1706V57.0759L138.218 57.0733H138.105L136.882 57.0759V57.1706C135.945 57.2599 134.402 57.2039 132.569 57.1479C126.373 56.9559 116.861 56.7653 116.245 62.2306C115.699 67.0599 114.805 74.3346 107.895 81.5866C103.155 86.5653 88.4514 92.3973 79.2901 95.0786C80.2501 136.139 54.0141 150.536 58.8541 180.024C60.1861 188.145 38.0927 227.865 43.9661 277.155C44.1914 279.048 55.8634 277.525 69.3621 276.004C84.0994 274.341 101.017 272.679 107.587 275.464C116.574 279.271 124.79 301.42 136.882 302.897V302.9L136.918 302.903C137.327 302.951 137.741 302.98 138.162 302.977C138.581 302.98 138.995 302.951 139.405 302.903L139.442 302.9V302.897C151.531 301.42 159.747 279.271 168.734 275.464C175.305 272.679 192.222 274.341 206.961 276.004C220.458 277.525 232.13 279.048 232.355 277.155C238.23 227.865 216.137 188.145 217.469 180.024" fill="#FBCDA3"/>
<path d="M232.655 248.752C230.482 246.624 183.394 248.93 168.551 251.786C141.649 256.964 145.257 264.745 143.77 275.593C143.033 280.961 138.162 291.401 138.162 302.977C138.162 341.226 144.505 381.489 143.921 386.02C141.361 405.856 145.087 410.137 144.482 419.294C143.742 430.429 139.726 440.208 140.611 461.304C141.75 488.448 149.082 519.917 148.033 538.099C147.789 542.36 147.225 546.928 146.433 555.538C145.658 563.905 142.401 571.8 142.486 574.789C142.717 583.364 159.949 579.806 163.75 579.542C168.367 579.217 185.438 577.162 184.118 570.53C183.258 566.202 178.73 562.028 177.775 554.659C177.242 550.565 172.407 541.656 173.165 539.562C181.849 515.548 196.046 478.506 196.391 454.657C196.622 438.87 194.155 425.592 195.655 415.596C198.129 399.094 204.106 392.254 210.53 378.916C219.282 360.733 237.559 291.198 232.655 248.752" fill="#FBCDA3"/>
<path d="M253.185 222.212C251.003 222.444 246.997 221.787 236.897 210.609C226.151 198.711 207.373 162.123 199.235 141.405C196.763 135.108 187.664 128.296 186.667 126.305C179.807 112.617 190.193 95.0653 190.621 94.3973C192.831 94.5426 194.804 94.656 197.032 95.0786C231.292 101.568 266.965 140.665 268.504 205.328C268.593 209.047 273.624 220.033 253.185 222.212Z" fill="#FBCDA3"/>
<path d="M274.715 276.468C274.681 271.453 270.399 271.2 267.438 270.503C263.071 269.477 256.102 271.249 253.245 275.924C251.403 281.263 246.414 280.385 243.449 296.072C242.655 300.285 241.755 304.357 241.317 308.075C241.267 308.431 247.966 307.539 249.375 303.557C252.791 293.957 254.115 295.389 256.214 292.08C255.887 296.363 259.65 301.736 254.897 311.768C251.893 318.108 247.853 321.612 250.639 324.289C253.427 326.961 266.558 318.827 273.207 300.831C275.957 293.387 277.581 284.501 274.715 276.468" fill="#FBCDA3"/>
<path d="M250.739 278.593C252.34 284.391 263.477 282.303 266.073 282.152C268.672 281.997 274.757 280.284 274.895 275.799C274.977 272.989 274.256 269.752 274.284 266.303C274.619 226.123 274.132 210.601 261.199 195.651C258.381 192.395 251.999 187.019 246.732 189.555C239.324 193.116 232.164 189.925 232.315 218.875C232.435 241.789 246.059 257.296 249.989 272.887C250.621 275.396 250.739 278.596 250.739 278.593" fill="#FBCDA3"/>
<path d="M43.668 248.752C45.8413 246.624 92.9294 248.93 107.772 251.786C134.675 256.964 131.067 264.745 132.555 275.593C133.289 280.961 138.163 291.401 138.163 302.977C138.163 341.226 131.819 381.489 132.403 386.02C134.963 405.856 131.235 410.137 131.841 419.294C132.58 430.429 136.596 440.208 135.711 461.304C134.572 488.448 127.241 519.917 128.291 538.099C128.533 542.36 129.097 546.928 129.889 555.538C130.667 563.905 133.923 571.8 133.837 574.789C133.607 583.364 116.375 579.806 112.573 579.542C107.955 579.217 90.8867 577.162 92.204 570.53C93.0653 566.202 97.5921 562.028 98.5494 554.659C99.0801 550.565 103.916 541.656 103.159 539.562C94.4734 515.548 80.2774 478.506 79.9321 454.657C79.7001 438.87 82.168 425.592 80.668 415.596C78.1933 399.094 72.2187 392.254 65.7934 378.916C57.0401 360.733 38.7627 291.198 43.668 248.752Z" fill="#FBCDA3"/>
<path d="M23.1374 222.212C25.32 222.444 29.3281 221.787 39.4254 210.609C50.1734 198.711 68.9494 162.123 77.0894 141.405C79.5614 135.108 88.6601 128.296 89.6574 126.305C96.5174 112.617 86.1294 95.0653 85.7014 94.3973C83.4934 94.5426 81.5201 94.656 79.2908 95.0786C45.0321 101.568 9.35739 140.665 7.82005 205.328C7.72939 209.047 2.69871 220.033 23.1374 222.212" fill="#FBCDA3"/>
<path d="M1.60734 276.468C1.64068 271.453 5.92202 271.2 8.88469 270.503C13.2514 269.477 20.2207 271.249 23.0767 275.924C24.918 281.263 29.9087 280.385 32.874 296.072C33.6673 300.285 34.566 304.357 35.0047 308.075C35.0553 308.431 28.3567 307.539 26.9473 303.557C23.5313 293.957 22.206 295.389 20.11 292.08C20.4353 296.363 16.6727 301.736 21.4247 311.768C24.43 318.108 28.47 321.612 25.6833 324.289C22.894 326.961 9.76335 318.827 3.11535 300.831C0.366019 293.387 -1.25932 284.501 1.60734 276.468" fill="#FBCDA3"/>
<path d="M25.5847 278.593C23.982 284.391 12.846 282.303 10.2487 282.152C7.65134 281.997 1.56469 280.284 1.42869 275.799C1.34469 272.989 2.066 269.752 2.038 266.303C1.70333 226.123 2.18998 210.601 15.1246 195.651C17.942 192.395 24.3246 187.019 29.5913 189.555C36.9993 193.116 44.1606 189.925 44.0086 218.875C43.8886 241.789 30.2633 257.296 26.334 272.887C25.702 275.396 25.5847 278.596 25.5847 278.593" fill="#FBCDA3"/>
<path d="M174.304 23.3572C173.869 21.2306 174.555 19.3426 173.74 17.2706C173.124 15.7039 171.241 14.4706 170.264 13.1279C169.047 11.4519 168.653 10.0892 167.281 8.47323C165.771 6.69323 163.816 6.39992 161.763 5.36125C158.903 3.91592 157.727 2.41856 154.541 1.8039C149.08 0.747898 144.1 -0.104118 138.349 0.0212157H137.975C132.224 -0.104118 127.244 0.747898 121.781 1.8039C118.596 2.41856 117.42 3.91592 114.561 5.36125C112.508 6.39992 110.555 6.69323 109.041 8.47323C107.671 10.0892 107.276 11.4519 106.059 13.1279C105.083 14.4706 103.2 15.7039 102.584 17.2706C101.768 19.3426 102.453 21.2306 102.02 23.3572C101.611 25.3572 100.503 27.3453 100.732 29.4279C100.963 31.4839 102.28 33.2479 101.888 35.4826C101.503 37.6946 102.157 40.0226 103.381 42.1159C105.027 44.9306 103.685 46.2012 104.82 49.1719C106.147 52.6546 108.007 56.0546 110.701 58.9799C113.728 62.2666 117.884 64.9639 122.812 66.0132L137.975 66.6306H138.349L153.512 66.0132C158.439 64.9639 162.596 62.2666 165.621 58.9799C168.317 56.0546 170.176 52.6546 171.504 49.1719C172.637 46.2012 171.296 44.9306 172.941 42.1159C174.168 40.0226 174.821 37.6946 174.435 35.4826C174.044 33.2479 175.361 31.4839 175.591 29.4279C175.821 27.3453 174.712 25.3572 174.304 23.3572" fill="#795C48"/>
<path d="M166.555 41.6852C166.555 41.6852 168.428 37.7759 169.724 40.5612C172.113 45.7092 167.399 52.5279 167.315 53.6372C167.235 54.7452 166.555 41.6852 166.555 41.6852" fill="#FBCDA3"/>
<path d="M109.768 41.6852C109.768 41.6852 107.894 37.7759 106.599 40.5612C104.21 45.7092 108.923 52.5279 109.007 53.6372C109.088 54.7452 109.768 41.6852 109.768 41.6852" fill="#FBCDA3"/>
<path d="M160.137 62.7278C155.467 64.1372 149.106 65.9479 147.797 66.8559C145.382 68.5319 140.609 70.0545 138.518 70.2079V70.1705L138.199 70.2225L138.163 70.2159L138.126 70.2225L137.806 70.1705V70.2079C135.717 70.0545 130.945 68.5319 128.527 66.8559C127.219 65.9479 120.858 64.1372 116.189 62.7278C115.793 66.1558 117.127 66.7785 114.389 71.6372C117.393 79.7305 128.533 87.6532 138.126 87.6532L138.163 87.6505L138.199 87.6532C147.791 87.6532 158.933 79.7305 161.938 71.6372C159.198 66.7785 160.531 66.1558 160.137 62.7278" fill="#EAC097"/>
<path d="M164.96 37.8612C162.478 32.2692 163.242 29.0412 162.224 25.7745C161.166 22.3785 160.396 21.0092 158.638 20.2105C156.562 19.2692 154.198 19.6132 149.708 19.9572C146.902 20.1732 143.265 20.3879 138.349 20.2892H137.974C133.058 20.3879 129.421 20.1732 126.614 19.9572C122.124 19.6132 119.761 19.2692 117.685 20.2105C115.926 21.0092 115.158 22.3785 114.1 25.7745C113.081 29.0412 113.845 32.2692 111.364 37.8612C104.886 52.4559 109.041 58.6039 111.364 65.8319C113.533 72.5772 121.736 82.7065 137.974 82.7065H138.349C154.586 82.7065 162.79 72.5772 164.96 65.8319C167.281 58.6039 171.438 52.4559 164.96 37.8612" fill="#FBCDA3"/>
<path d="M138.171 56.4532L138.162 56.4519L138.15 56.4532C135.608 56.3052 133.276 55.9386 131.648 54.7586C132.704 55.1732 135.394 55.3799 138.079 55.3799L138.162 55.3786L138.242 55.3799C140.928 55.3799 143.616 55.1732 144.672 54.7586C143.046 55.9386 140.714 56.3052 138.171 56.4532" fill="#E8BD96"/>
<path d="M138.162 64.8212C138.598 64.7426 138.945 64.3639 139.602 64.4666C142.269 64.8532 142.97 65.6092 144.97 66.0666C145.202 66.1186 145.621 66.0786 145.722 66.2119C145.917 66.4692 144.277 67.5452 143.466 67.8772C142.578 68.2452 140.358 68.6386 138.162 68.6399V64.8212" fill="#ECB593"/>
<path d="M138.162 64.8212C138.598 64.7426 138.945 64.3639 139.602 64.4665C142.269 64.8532 142.97 65.6092 144.97 66.0665C145.202 66.1185 145.621 66.0786 145.722 66.2119L145.718 66.2786C145.607 66.2972 145.434 66.3119 145.146 66.2919C145.138 66.2905 141.395 65.6879 139.683 66.3359C139.221 66.5145 138.526 66.5652 138.19 66.5786H138.162V64.8212" fill="#E1AE8D"/>
<path d="M138.162 64.8212C137.725 64.7426 137.378 64.3639 136.721 64.4666C134.055 64.8532 133.351 65.6092 131.353 66.0666C131.119 66.1186 130.701 66.0786 130.602 66.2119C130.406 66.4692 132.046 67.5452 132.855 67.8772C133.745 68.2452 135.963 68.6386 138.162 68.6399V64.8212" fill="#ECB593"/>
<path d="M138.162 64.8212C137.724 64.7426 137.378 64.3639 136.72 64.4665C134.055 64.8532 133.351 65.6092 131.352 66.0665C131.119 66.1185 130.7 66.0786 130.602 66.2119L130.606 66.2786C130.716 66.2972 130.888 66.3119 131.175 66.2919C131.184 66.2905 134.927 65.6879 136.639 66.3359C137.103 66.5145 137.795 66.5652 138.132 66.5786H138.162V64.8212" fill="#E1AE8D"/>
<path d="M156.486 41.6813C156.486 41.6813 153.684 44.2053 150.938 44.2786C146.635 44.3893 145.729 42.9533 145.729 42.9533C145.729 42.9533 146.157 39.7919 150.185 39.9679C154.013 40.1346 156.486 41.6813 156.486 41.6813" fill="white"/>
<path d="M152.624 42.3439C152.684 41.1546 151.782 40.1452 150.587 40.0026L150.354 39.9826C149.111 39.9586 148.061 40.8986 148.001 42.1186C147.955 43.0319 148.478 43.8412 149.261 44.2346C149.754 44.2732 150.305 44.2946 150.937 44.2786C151.087 44.2732 151.235 44.2373 151.387 44.2199C152.086 43.8613 152.581 43.1692 152.624 42.3439" fill="#3871C1"/>
<path d="M150.242 43.6866C151.067 43.7266 151.769 43.1066 151.807 42.3039C151.849 41.5012 151.211 40.8159 150.387 40.7759C149.562 40.7359 148.862 41.3559 148.822 42.1586C148.782 42.9626 149.417 43.6453 150.242 43.6866Z" fill="#231F20"/>
<path d="M151.895 41.8772C151.886 42.1026 151.684 42.2759 151.444 42.2639C151.208 42.2532 151.022 42.0599 151.034 41.8345L151.042 41.6852C151.054 41.4599 151.256 41.2865 151.492 41.2972C151.732 41.3092 151.916 41.5012 151.904 41.7279L151.895 41.8772" fill="white"/>
<path d="M145.729 42.9532C145.989 41.8519 146.299 40.8226 147.426 40.3719C151.446 38.7586 155.618 41.4012 156.458 41.5879C155.337 41.7306 154.059 40.8826 152.557 40.6679C149.222 40.1892 146.939 40.2706 145.729 42.9532" fill="#91816F"/>
<path d="M144.683 37.3679C144.4 34.5772 150.936 34.5292 152.964 34.8119C155.916 35.0852 157.649 36.5372 157.359 37.3945C154.979 36.8092 154.864 36.4972 152.008 36.5372C146.661 36.6159 144.831 38.8159 144.683 37.3679Z" fill="#8F8780"/>
<path d="M119.838 41.6813C119.838 41.6813 122.641 44.2053 125.387 44.2786C129.689 44.3893 130.597 42.9533 130.597 42.9533C130.597 42.9533 130.169 39.7919 126.139 39.9679C122.313 40.1346 119.838 41.6813 119.838 41.6813" fill="white"/>
<path d="M123.698 42.3439C123.638 41.1546 124.539 40.1452 125.735 40.0026L125.967 39.9826C127.211 39.9586 128.262 40.8986 128.322 42.1186C128.366 43.0319 127.843 43.8412 127.061 44.2346C126.567 44.2732 126.018 44.2946 125.386 44.2786C125.235 44.2732 125.087 44.2373 124.937 44.2199C124.235 43.8613 123.741 43.1692 123.698 42.3439" fill="#3871C1"/>
<path d="M126.082 43.6866C125.255 43.7266 124.555 43.1066 124.515 42.3039C124.475 41.5012 125.111 40.8159 125.937 40.7759C126.762 40.7359 127.462 41.3559 127.501 42.1586C127.542 42.9626 126.906 43.6453 126.082 43.6866" fill="#231F20"/>
<path d="M124.428 41.8772C124.44 42.1026 124.638 42.2759 124.88 42.2639C125.116 42.2532 125.302 42.0599 125.289 41.8345L125.282 41.6852C125.272 41.4599 125.066 41.2865 124.833 41.2972C124.592 41.3092 124.408 41.5012 124.418 41.7279L124.428 41.8772" fill="white"/>
<path d="M130.597 42.9532C130.335 41.8519 130.025 40.8226 128.898 40.3719C124.879 38.7586 120.707 41.4012 119.867 41.5879C120.989 41.7306 122.266 40.8826 123.767 40.6679C127.105 40.1892 129.387 40.2706 130.597 42.9532" fill="#91816F"/>
<path d="M131.64 37.3679C131.923 34.5772 125.388 34.5292 123.359 34.8119C120.407 35.0852 118.675 36.5372 118.965 37.3945C121.344 36.8092 121.459 36.4972 124.316 36.5372C129.664 36.6159 131.493 38.8159 131.64 37.3679" fill="#8F8780"/>
<path d="M233.3 256.775V256.769C232.633 227.299 223.548 203.027 219.428 189.676L219.417 189.647C219.077 188.543 218.766 187.503 218.501 186.553L218.47 186.445L218.403 186.195L218.316 185.864L218.284 185.749C218.229 185.543 218.172 185.332 218.122 185.132C218.09 185.004 218.062 184.881 218.033 184.759C217.992 184.587 217.951 184.421 217.914 184.257L217.838 183.928C217.802 183.761 217.77 183.601 217.737 183.443L217.723 183.36C217.693 183.212 217.666 183.069 217.641 182.928L217.623 182.837C217.599 182.693 217.574 182.552 217.556 182.415L217.523 182.175C217.505 182.029 217.485 181.887 217.473 181.749L217.445 181.501C217.436 181.369 217.433 181.249 217.43 181.128L217.418 180.795L217.416 180.703C217.42 180.459 217.438 180.229 217.47 180.025C217.622 179.097 217.742 178.185 217.835 177.287C217.869 176.968 217.881 176.661 217.905 176.345C217.952 175.769 218.005 175.191 218.029 174.624C218.037 174.436 218.03 174.253 218.035 174.065C218.037 173.911 218.038 173.753 218.041 173.596C218.05 173.075 218.067 172.549 218.057 172.036L218.053 171.928C218.042 171.596 218.02 171.269 218.005 170.941C217.985 170.464 217.971 169.987 217.935 169.517C217.921 169.351 217.897 169.188 217.882 169.023C217.86 168.817 217.838 168.611 217.818 168.407C217.77 167.956 217.729 167.501 217.669 167.056C217.617 166.667 217.546 166.284 217.484 165.899C217.416 165.48 217.354 165.057 217.275 164.643C217.231 164.419 217.182 164.199 217.133 163.977C217.101 163.816 217.063 163.655 217.029 163.492C216.942 163.085 216.86 162.679 216.761 162.276C216.668 161.892 216.561 161.515 216.46 161.135C216.354 160.74 216.255 160.344 216.142 159.952C216.085 159.752 216.017 159.555 215.957 159.356C215.897 159.164 215.838 158.969 215.778 158.776C215.661 158.4 215.547 158.024 215.423 157.649C215.283 157.229 215.133 156.812 214.986 156.395C214.865 156.053 214.748 155.711 214.621 155.371C214.461 154.94 214.291 154.509 214.123 154.08C213.998 153.753 213.873 153.427 213.742 153.103C213.561 152.653 213.373 152.204 213.184 151.755C213.057 151.447 212.93 151.139 212.797 150.832C212.595 150.361 212.388 149.891 212.178 149.42C212.056 149.14 211.934 148.859 211.806 148.577C211.565 148.04 211.319 147.501 211.07 146.963C210.981 146.763 210.89 146.564 210.798 146.365C210.468 145.647 210.13 144.925 209.79 144.2L209.789 144.195L209.753 144.119C209.319 143.193 208.881 142.26 208.44 141.32C207.494 139.701 206.649 138.216 205.993 136.885C203.992 132.831 201.833 126.699 200.074 119.989L200.072 119.979C199.785 118.945 199.516 117.892 199.261 116.819V116.816L199.245 116.753V116.752C199.1 116.133 198.958 115.509 198.825 114.876C198.711 114.356 198.609 113.823 198.505 113.292C198.45 113.005 198.39 112.727 198.337 112.437L198.335 112.433C197.113 106.285 196.37 100.12 196.507 94.9266V94.9199C191.649 93.4679 185.393 91.1919 179.872 88.6426C176.713 118.359 171.27 130.112 138.182 130.519H137.807C104.721 130.112 99.6115 118.359 96.4542 88.6426C90.9315 91.1919 84.6755 93.4679 79.8169 94.9199V94.9266C79.9555 100.12 79.2129 106.285 77.9889 112.433L77.9875 112.437C77.9355 112.727 77.8755 113.005 77.8208 113.292C77.7182 113.823 77.6128 114.356 77.5008 114.876C77.3675 115.509 77.2262 116.133 77.0795 116.752V116.753L77.0648 116.816V116.819C76.8102 117.892 76.5408 118.945 76.2542 119.979L76.2515 119.989C74.4928 126.699 72.3342 132.831 70.3342 136.885C69.6755 138.216 68.8315 139.701 67.8875 141.32C67.4448 142.26 67.0062 143.193 66.5729 144.119L66.5368 144.195L66.5342 144.2C66.1942 144.925 65.8582 145.647 65.5262 146.365C65.4342 146.564 65.3435 146.763 65.2542 146.963C65.0048 147.501 64.7595 148.04 64.5195 148.577C64.3915 148.859 64.2715 149.14 64.1475 149.42C63.9382 149.891 63.7288 150.361 63.5288 150.832C63.3955 151.139 63.2702 151.447 63.1408 151.755C62.9515 152.204 62.7635 152.653 62.5822 153.103C62.4515 153.427 62.3275 153.753 62.2008 154.08C62.0342 154.509 61.8635 154.94 61.7035 155.371C61.5768 155.711 61.4595 156.053 61.3395 156.395C61.1929 156.812 61.0422 157.229 60.9008 157.649C60.7782 158.024 60.6662 158.4 60.5475 158.776C60.4862 158.969 60.4275 159.164 60.3675 159.356C60.3075 159.555 60.2395 159.752 60.1822 159.952C60.0702 160.344 59.9702 160.74 59.8648 161.135C59.7648 161.515 59.6569 161.892 59.5635 162.276C59.4649 162.679 59.3849 163.085 59.2969 163.492C59.2622 163.655 59.2248 163.816 59.1928 163.977C59.1435 164.199 59.0928 164.419 59.0515 164.643C58.9702 165.057 58.9088 165.48 58.8408 165.899C58.7782 166.284 58.7089 166.667 58.6555 167.056C58.5955 167.501 58.5555 167.956 58.5075 168.407C58.4875 168.611 58.4648 168.817 58.4435 169.023C58.4288 169.188 58.4035 169.351 58.3902 169.517C58.3542 169.987 58.3395 170.464 58.3208 170.941C58.3048 171.269 58.2822 171.596 58.2742 171.928L58.2688 172.036C58.2581 172.549 58.2755 173.075 58.2835 173.596C58.2862 173.753 58.2888 173.911 58.2902 174.065C58.2955 174.253 58.2889 174.436 58.2969 174.624C58.3209 175.191 58.3728 175.769 58.4208 176.345C58.4448 176.661 58.4568 176.968 58.4902 177.287C58.5835 178.185 58.7035 179.097 58.8555 180.025C58.8889 180.229 58.9049 180.459 58.9089 180.703L58.9062 180.795L58.8955 181.128C58.8928 181.249 58.8902 181.369 58.8795 181.501L58.8529 181.749C58.8395 181.887 58.8208 182.029 58.8021 182.175L58.7715 182.415C58.7502 182.552 58.7261 182.693 58.7021 182.837L58.6835 182.928C58.6595 183.069 58.6328 183.212 58.6035 183.36L58.5875 183.443C58.5555 183.601 58.5235 183.761 58.4875 183.928L58.4102 184.257C58.3728 184.421 58.3342 184.587 58.2928 184.759C58.2635 184.881 58.2355 185.004 58.2035 185.132C58.1528 185.332 58.0955 185.543 58.0408 185.749L58.0102 185.864L57.9222 186.195L57.8555 186.445L57.8249 186.553C57.5582 187.503 57.2475 188.543 56.9075 189.647L56.8982 189.676C52.7782 203.027 43.6929 227.299 43.0249 256.769V256.775C42.9742 259.063 42.9609 261.375 43.0169 263.721C46.7502 269.049 50.6889 273.64 54.7555 277.601C68.4142 290.033 78.0115 299.453 129.566 299.453C134.742 298.528 141.583 298.528 146.759 299.453C198.313 299.453 207.911 290.033 221.569 277.601C225.635 273.64 229.575 269.049 233.309 263.721C233.365 261.375 233.35 259.063 233.3 256.775" fill="#DBEFF5"/>
<path d="M233.299 256.991C228.169 258.041 217.139 263.071 206.472 270.221C188.404 282.337 167.917 294.727 138.163 294.727C108.407 294.727 87.92 282.337 69.8506 270.221C59.184 263.071 48.1547 258.041 43.024 256.991C42.3333 271.243 43.7293 287.689 46.1973 303.913C54.5333 306.664 68.856 310.261 90.504 312.165C111.228 313.988 131.773 311.124 138.095 310.109C138.137 307.804 138.185 307.804 138.229 310.109C144.552 311.124 165.095 313.988 185.82 312.165C207.468 310.261 221.791 306.664 230.127 303.913C232.595 287.689 233.992 271.243 233.299 256.991Z" fill="#3C44A2"/>
</svg>
