<svg width="192" height="581" viewBox="0 0 192 581" fill="none" xmlns="http://www.w3.org/2000/svg">
<path d="M150.823 131.455C165.449 99.9172 162.467 100.312 162.467 100.312C157.597 96.8705 154.469 95.2679 142.241 92.5825C132.916 90.5332 125.108 93.4532 116.217 84.3145C111.385 79.3479 110.674 72.0332 110.323 63.5812C110.026 56.4612 100.908 57.6945 96.8071 57.3012V57.2065L95.5852 57.2025H95.47L94.2476 57.2065V57.3012C90.1471 57.6945 81.0284 56.4612 80.7325 63.5812C80.3815 72.0332 79.67 79.3479 74.8377 84.3145C65.9476 93.4532 58.1388 90.5332 48.8148 92.5825C36.5867 95.2679 33.4585 96.8705 28.5883 100.312C28.5883 100.312 25.6055 99.9172 40.2309 131.455C41.0591 133.241 44.3356 153.424 50.0951 173.544C55.6153 192.832 54.2601 214.291 54.5279 225.695C54.7576 235.521 53.1637 235.649 51.4945 241.02C48.0404 252.131 42.8185 258.164 41.6711 277.211C41.556 279.116 43.9981 277.608 47.9549 276.1C52.27 274.456 58.3867 272.811 64.9539 275.593C73.9404 279.4 82.1576 301.551 94.2476 303.028V303.029L94.2836 303.032C94.694 303.08 95.1071 303.109 95.5273 303.108C95.9471 303.109 96.3612 303.08 96.7705 303.032L96.8071 303.029V303.028C108.898 301.551 117.114 279.4 126.101 275.593C132.668 272.811 138.785 274.456 143.099 276.1C147.057 277.608 149.498 279.116 149.383 277.211C148.237 258.164 143.015 252.131 139.561 241.02C137.89 235.649 136.298 235.521 136.527 225.695C136.795 214.291 135.439 192.832 140.961 173.544C146.719 153.424 149.997 133.241 150.823 131.455" fill="#FBCDA3"/>
<path d="M149.385 277.21C149.402 277.117 147.527 261.004 143.387 251.109C141.213 248.981 137.777 238.348 123.043 241.729C102.778 246.381 102.622 264.876 101.135 275.724C100.399 281.092 99.9258 290.622 99.858 302.197C99.7331 323.452 100.987 351.617 104.546 373.71C105.335 378.61 104.452 383.484 104.262 388.046C103.617 403.613 107.238 410.16 106.632 419.316C105.893 430.452 101.877 440.23 102.762 461.326C103.901 488.47 111.508 519.769 110.459 537.952C110.216 542.211 109.653 546.781 108.859 555.392C108.085 563.757 104.827 571.652 104.912 574.64C105.143 583.217 114.756 579.937 118.557 579.673C123.174 579.348 140.245 577.293 138.926 570.661C138.065 566.332 132.258 562.159 131.302 554.789C130.769 550.694 126.669 541.918 126.691 539.692C127.096 499.561 136.109 478.477 136.909 455.242C137.481 438.577 136.555 428.984 135.485 418.933C134.406 408.88 138.911 389.601 140.961 376.749C147.365 336.586 152.663 314.116 149.385 277.21" fill="#FBCDA3"/>
<path d="M91.1982 302.197C91.1306 290.622 90.6566 281.092 89.9206 275.724C88.4332 264.876 88.2764 246.381 68.0129 241.729C53.281 238.348 49.8425 248.981 47.6697 251.109C43.529 261.004 41.6545 277.117 41.6722 277.21C38.393 314.116 43.6905 336.586 50.0962 376.749C52.1457 389.601 56.6498 408.88 55.5712 418.933C54.5004 428.984 53.5754 438.577 54.1482 455.242C54.9477 478.477 63.9597 499.561 64.3649 539.692C64.3868 541.918 60.2868 550.694 59.754 554.789C58.7982 562.159 52.9921 566.332 52.1306 570.661C50.8124 577.293 67.8816 579.348 72.4998 579.673C76.3004 579.937 85.9124 583.217 86.1436 574.64C86.229 571.652 82.9717 563.757 82.1973 555.392C81.4034 546.781 80.8394 542.211 80.5973 537.952C79.5473 519.769 87.1545 488.47 88.293 461.326C89.178 440.23 85.1624 430.452 84.4244 419.316C83.8181 410.16 87.4384 403.613 86.7941 388.046C86.604 383.484 85.7217 378.61 86.5102 373.71C90.0697 351.617 91.3233 323.452 91.1982 302.197" fill="#FBCDA3"/>
<path d="M176.969 232.72C174.814 233.133 165.554 228.696 165.489 213.633C165.458 206.109 153.118 180.155 147.027 140.287C146.007 133.599 139.459 124.524 139.041 122.337C136.161 107.3 141.999 95.7039 142.241 92.5825C164.895 94.8559 171.249 106.712 172.103 125.695C172.658 138.061 178.349 148.577 181.701 163.271C184.706 176.444 186.79 199.213 186.686 213.827C186.659 217.547 186.711 230.852 176.969 232.72" fill="#FBCDA3"/>
<path d="M188.12 282.684C188.163 277.669 184.478 274.849 181.434 274.844C178.256 274.84 178.062 278.055 175.135 282.684C173.212 287.995 167.583 289.207 164.386 304.845C163.526 309.047 162.567 313.108 162.071 316.817C162.016 317.176 165.443 318.328 166.911 314.368C170.471 304.817 171.774 306.272 173.92 302.995C173.53 307.275 175.048 311.436 170.147 321.395C167.048 327.689 162.955 331.131 165.7 333.848C168.448 336.563 181.7 328.629 188.619 310.733C191.48 303.332 189.867 290.143 188.12 282.684Z" fill="#FBCDA3"/>
<path d="M175.135 282.684C176.231 288.597 178.557 287.364 181.158 287.437C183.758 287.508 187.598 287.14 188.121 282.684C188.445 279.891 189.053 275.297 189.381 271.864C193.174 231.861 190.195 212.949 183.753 200.837C181.731 197.036 178.631 193.217 173.167 195.289C165.121 198.336 165.379 209.245 165.489 213.633C166.111 238.187 171.463 259.747 174.034 275.619C174.447 278.171 175.135 282.684 175.135 282.684" fill="#FBCDA3"/>
<path d="M14.0887 232.72C16.2428 233.133 25.5033 228.696 25.5668 213.633C25.5991 206.109 37.9381 180.155 44.0288 140.287C45.0501 133.599 51.597 124.524 52.0157 122.337C54.8954 107.3 49.0569 95.7039 48.8162 92.5825C26.1616 94.8559 19.808 106.712 18.9542 125.695C18.3985 138.061 12.7064 148.577 9.35586 163.271C6.35169 176.444 4.26628 199.213 4.37096 213.827C4.39701 217.547 4.34492 230.852 14.0887 232.72Z" fill="#FBCDA3"/>
<path d="M2.93713 282.684C2.89442 277.669 6.5788 274.849 9.62256 274.844C12.7996 274.84 12.9944 278.055 15.9225 282.684C17.8428 287.995 23.4725 289.207 26.6709 304.845C27.5313 309.047 28.4897 313.108 28.9845 316.817C29.0397 317.176 25.6143 318.328 24.1455 314.368C20.5845 304.817 19.2824 306.272 17.1356 302.995C17.5267 307.275 16.008 311.436 20.9095 321.395C24.008 327.689 28.1012 331.131 25.3553 333.848C22.608 336.563 9.35537 328.629 2.43609 310.733C-0.424325 303.332 1.1887 290.143 2.93713 282.684" fill="#FBCDA3"/>
<path d="M15.9218 282.684C14.8245 288.597 12.4994 287.364 9.89839 287.437C7.29735 287.508 3.45881 287.14 2.93641 282.684C2.61141 279.891 2.00255 275.297 1.67651 271.864C-2.11931 231.861 0.859851 212.949 7.30255 200.837C9.32495 197.036 12.4229 193.217 17.8874 195.289C25.9338 198.336 25.6776 209.245 25.5661 213.633C24.9453 238.187 19.5932 259.747 17.0218 275.619C16.6088 278.171 15.9218 282.684 15.9218 282.684" fill="#FBCDA3"/>
<path d="M125.503 23.5065C125.142 21.3665 125.713 19.4639 125.033 17.3785C124.519 15.8012 122.95 14.5585 122.136 13.2092C121.12 11.5212 120.792 10.1479 119.65 8.52119C118.389 6.72919 116.759 6.43319 115.047 5.38786C112.665 3.93186 111.684 2.42521 109.028 1.80654C104.475 0.743876 100.322 -0.114819 95.5278 0.0105143C90.7335 -0.114819 86.5803 0.743876 82.0278 1.80654C79.3715 2.42521 78.3908 3.93186 76.0084 5.38786C74.2966 6.43319 72.6663 6.72919 71.4054 8.52119C70.2632 10.1479 69.9356 11.5212 68.9194 13.2092C68.1059 14.5585 66.536 15.8012 66.0226 17.3785C65.3428 19.4639 65.9136 21.3665 65.5523 23.5065C65.2111 25.5212 65.5668 27.5226 65.759 29.6199C65.9502 31.6892 67.0486 33.4665 66.7226 35.7145C66.4012 37.9425 66.946 40.2865 67.9674 42.3945C69.3398 45.2279 68.221 46.5079 69.1668 49.4972C70.2731 53.0039 71.8231 56.4265 74.0699 59.3732C76.5934 62.6825 78.7783 65.3986 82.886 66.4559L95.5278 67.0772L108.169 66.4559C112.278 65.3986 114.463 62.6825 116.986 59.3732C119.232 56.4265 120.783 53.0039 121.888 49.4972C122.835 46.5079 121.716 45.2279 123.088 42.3945C124.109 40.2865 124.655 37.9425 124.333 35.7145C124.007 33.4665 125.106 31.6892 125.297 29.6199C125.489 27.5226 125.844 25.5212 125.503 23.5065Z" fill="#795C48"/>
<path d="M111.081 72.6345C110.948 71.7825 110.838 70.9092 110.746 70.0172C110.746 70.0172 110.746 70.0172 110.746 70.0172C110.838 70.9092 110.949 71.7812 111.083 72.6332C111.083 72.6332 111.082 72.6345 111.081 72.6345ZM79.9737 72.6345C79.9732 72.6345 79.9727 72.6332 79.9727 72.6332C80.1065 71.7812 80.2164 70.9092 80.309 70.0159C80.309 70.0172 80.3091 70.0172 80.3096 70.0172C80.2175 70.9092 80.1071 71.7825 79.9737 72.6345Z" fill="#E9E8E8"/>
<path d="M95.5282 84.7946C88.9907 84.7946 83.4282 78.7012 79.9746 72.6346C80.1079 71.7826 80.2183 70.9092 80.3105 70.0172C82.9694 73.0546 86.0131 76.2612 86.8511 76.9586C89.0225 78.7679 91.7454 79.9532 95.3839 79.9532L95.5282 79.9599L95.6735 79.9532C99.3099 79.9532 102.034 78.7679 104.206 76.9586C105.043 76.2612 108.087 73.0546 110.746 70.0172C110.839 70.9092 110.949 71.7826 111.082 72.6346C107.628 78.7012 102.066 84.7946 95.5282 84.7946" fill="#E5BB94"/>
<path d="M117.32 26.8572C116.437 23.5425 115.796 22.2052 114.33 21.4265C112.636 20.5278 110.026 20.9545 105.89 21.3798C103.159 21.6625 99.7645 21.9439 95.5281 21.8452C91.2917 21.9439 87.8963 21.6625 85.1671 21.3798C81.0297 20.9545 78.4207 20.5278 76.7265 21.4265C75.2603 22.2052 74.6193 23.5425 73.7369 26.8572C72.8879 30.0465 71.565 37.5359 72.0207 39.9825C73.7469 49.2532 72.7906 59.3732 76.3005 65.0052C78.0125 67.7532 85.4619 75.8012 86.851 76.9585C89.0223 78.7678 91.7453 79.9532 95.3838 79.9532L95.5281 79.9598L95.6734 79.9532C99.3098 79.9532 102.034 78.7678 104.206 76.9585C105.594 75.8012 113.044 67.7532 114.757 65.0052C118.266 59.3732 117.31 49.2532 119.036 39.9825C119.492 37.5359 118.169 30.0465 117.32 26.8572" fill="#FBCDA3"/>
<path d="M73.0716 42.4892C73.0716 42.4892 71.0419 38.9879 70.3195 41.8652C68.9888 47.1812 73.7227 53.0772 73.9299 54.1345C74.1341 55.1932 73.0716 42.4892 73.0716 42.4892Z" fill="#FBCDA3"/>
<path d="M117.985 42.4892C117.985 42.4892 120.014 38.9879 120.737 41.8652C122.066 47.1812 117.332 53.0772 117.125 54.1345C116.923 55.1932 117.985 42.4892 117.985 42.4892" fill="#FBCDA3"/>
<path d="M95.5368 56.5826H95.528H95.5192C93.4947 56.4346 91.6348 56.0693 90.3379 54.8893C91.1791 55.3026 93.3223 55.5106 95.4635 55.5106L95.528 55.5092L95.5931 55.5106C97.7343 55.5106 99.8775 55.3026 100.719 54.8893C99.4212 56.0693 97.5619 56.4346 95.5368 56.5826Z" fill="#E8BD96"/>
<path d="M102.338 66.4585C100.338 66.0465 99.6357 65.3692 96.9701 65.0212C96.3128 64.9306 95.9648 65.2692 95.5289 65.3399C95.0925 65.2692 94.7456 64.9306 94.0877 65.0212C91.4221 65.3692 90.7196 66.0465 88.7201 66.4585C88.4877 66.5052 88.0691 66.4706 87.9691 66.5892C87.7743 66.8199 89.4139 67.7866 90.2237 68.0852C91.1128 68.4159 93.332 68.7679 95.5289 68.7692C97.7259 68.7679 99.9461 68.4159 100.834 68.0852C101.644 67.7866 103.284 66.8199 103.089 66.5892C102.989 66.4706 102.571 66.5052 102.338 66.4585" fill="#ECB593"/>
<path d="M102.337 66.4586C100.337 66.0466 99.6354 65.3692 96.9698 65.0212C96.3125 64.9306 95.9645 65.2692 95.5286 65.3399C95.0922 65.2692 94.7453 64.9306 94.0874 65.0212C91.4218 65.3692 90.7193 66.0466 88.7198 66.4586C88.4874 66.5052 88.0687 66.4706 87.9688 66.5892L87.9723 66.6479C88.0838 66.6666 88.2562 66.6786 88.5431 66.6612C88.5526 66.6612 92.2942 66.1172 94.0062 66.7012C94.4698 66.8612 95.1641 66.9066 95.4999 66.9186H95.5573C95.8937 66.9066 96.5869 66.8612 97.0515 66.7012C98.763 66.1172 102.505 66.6612 102.514 66.6612C102.802 66.6786 102.974 66.6666 103.085 66.6479L103.089 66.5892C102.988 66.4706 102.57 66.5052 102.337 66.4586" fill="#E1AE8D"/>
<path d="M77.2051 41.8106C77.2051 41.8106 80.0056 44.3359 82.7525 44.4066C87.0545 44.5199 87.9624 43.0826 87.9624 43.0826C87.9624 43.0826 87.5343 39.9213 83.5051 40.0973C79.6785 40.2639 77.2051 41.8106 77.2051 41.8106Z" fill="white"/>
<path d="M81.0653 42.4732C81.0055 41.2852 81.9065 40.2746 83.1024 40.1332L83.3352 40.1119C84.5773 40.0879 85.6279 41.0292 85.6888 42.2492C85.7336 43.1612 85.2106 43.9706 84.4289 44.3639C83.9346 44.4039 83.3852 44.4239 82.7524 44.4066C82.6024 44.4039 82.4533 44.3679 82.3024 44.3492C81.6024 43.9906 81.1081 43.2999 81.0653 42.4732" fill="#3871C1"/>
<path d="M83.4489 43.8159C82.6229 43.8559 81.9234 43.2372 81.8827 42.4346C81.8417 41.6319 82.4791 40.9452 83.3041 40.9066C84.1291 40.8666 84.8286 41.4866 84.8687 42.2893C84.9087 43.0919 84.2739 43.7759 83.4489 43.8159" fill="#231F20"/>
<path d="M81.7945 42.0066C81.8054 42.2319 82.0054 42.4065 82.2455 42.3932C82.483 42.3825 82.6695 42.1905 82.6565 41.9652L82.6491 41.8159C82.6382 41.5892 82.4346 41.4159 82.1991 41.4279C81.9581 41.4385 81.7742 41.6319 81.7857 41.8572L81.7945 42.0066" fill="white"/>
<path d="M87.9627 43.0826C87.7023 41.9812 87.3908 40.9519 86.2652 40.5012C82.2444 38.8879 78.0726 41.5306 77.2324 41.7172C78.3538 41.8612 79.6308 41.0132 81.133 40.7986C84.4699 40.3199 86.7523 40.4012 87.9627 43.0826Z" fill="#91816F"/>
<path d="M113.851 41.8106C113.851 41.8106 111.051 44.3359 108.303 44.4066C104.002 44.5199 103.094 43.0826 103.094 43.0826C103.094 43.0826 103.522 39.9213 107.551 40.0973C111.378 40.2639 113.851 41.8106 113.851 41.8106" fill="white"/>
<path d="M109.991 42.4732C110.051 41.2852 109.15 40.2746 107.954 40.1332L107.722 40.1119C106.479 40.0879 105.428 41.0292 105.368 42.2492C105.323 43.1612 105.846 43.9706 106.628 44.3639C107.121 44.4039 107.672 44.4239 108.303 44.4066C108.454 44.4039 108.602 44.3679 108.754 44.3492C109.454 43.9906 109.949 43.2999 109.991 42.4732" fill="#3871C1"/>
<path d="M107.607 43.8159C108.434 43.8559 109.133 43.2372 109.174 42.4346C109.214 41.6319 108.577 40.9452 107.753 40.9066C106.927 40.8666 106.228 41.4866 106.187 42.2893C106.148 43.0919 106.782 43.7759 107.607 43.8159" fill="#231F20"/>
<path d="M109.262 42.0066C109.251 42.2319 109.051 42.4065 108.811 42.3932C108.573 42.3825 108.387 42.1905 108.399 41.9652L108.407 41.8159C108.418 41.5892 108.622 41.4159 108.857 41.4279C109.098 41.4385 109.282 41.6319 109.27 41.8572L109.262 42.0066" fill="white"/>
<path d="M103.094 43.0826C103.354 41.9812 103.665 40.9519 104.791 40.5012C108.812 38.8879 112.984 41.5306 113.824 41.7172C112.703 41.8612 111.425 41.0132 109.923 40.7986C106.586 40.3199 104.304 40.4012 103.094 43.0826" fill="#91816F"/>
<path d="M89.0058 37.4972C89.2881 34.7079 82.7526 34.6599 80.725 34.9425C77.7725 35.2145 76.0408 36.6679 76.3302 37.5252C78.71 36.9385 78.825 36.6265 81.6807 36.6679C87.0282 36.7452 88.8584 38.9452 89.0058 37.4972Z" fill="#8F8780"/>
<path d="M102.05 37.4972C101.768 34.7079 108.303 34.6599 110.331 34.9425C113.283 35.2145 115.015 36.6679 114.725 37.5252C112.346 36.9385 112.231 36.6265 109.375 36.6679C104.027 36.7452 102.198 38.9452 102.05 37.4972Z" fill="#8F8780"/>
<path d="M146.057 153.361C144.479 148.569 143.378 141.908 143.094 133.536C142.694 121.725 145.417 103.177 146.414 93.5439C146.206 93.4919 145.973 93.4399 145.757 93.3879C145.699 93.5972 145.665 93.7253 145.666 93.7226L145.753 93.3879C144.666 93.1279 143.513 92.8612 142.241 92.5826C138.693 91.8026 135.582 91.7879 132.596 91.5652C128.212 105.692 117.644 129.573 96.215 130.097V130.092L95.9536 130.105V130.103L95.7688 130.112L95.5276 130.121L95.2864 130.112L95.1016 130.103V130.105L94.8406 130.092V130.097C73.4114 129.573 62.8426 105.692 58.4588 91.5652C55.4745 91.7879 52.3634 91.8026 48.815 92.5826C47.5432 92.8612 46.3896 93.1279 45.3021 93.3879L45.3896 93.7226C45.3906 93.7253 45.3552 93.5972 45.2973 93.3879C45.0822 93.4399 44.85 93.4919 44.6406 93.5439C45.638 103.177 48.3614 121.725 47.962 133.536C47.6781 141.908 46.5754 148.569 44.9978 153.361C46.4 159.583 48.0978 166.567 50.0953 173.544C55.6161 192.832 54.2604 214.291 54.5281 225.695C54.7578 235.521 53.164 235.649 51.4948 241.02C49.6708 246.887 47.3552 251.337 45.4052 257.036H145.65C143.699 251.337 141.386 246.887 139.561 241.02C137.89 235.649 136.298 235.521 136.527 225.695C136.795 214.291 135.439 192.832 140.961 173.544C142.958 166.567 144.655 159.583 146.057 153.361Z" fill="#DBEFF5"/>
<path d="M149.385 277.211C148.583 263.931 145.805 256.977 143.022 250.219C135.706 251.679 120.571 253.723 95.8476 253.729V253.723L95.5274 253.727L95.2076 253.723V253.729C70.4852 253.723 55.3498 251.679 48.0326 250.219C45.2514 256.977 42.4711 263.931 41.6711 277.211C40.591 289.359 40.4466 299.939 40.9586 310.105C44.8372 311.483 51.4446 313.296 60.4935 313.828C82.2476 315.108 91.1779 310.148 91.1795 310.148V310.064C91.1924 308.712 91.2003 307.379 91.2034 306.068C91.2066 304.756 91.2044 303.463 91.1971 302.197V302.196C91.556 302.347 91.9216 302.459 92.2878 302.576C92.931 302.777 93.5809 302.947 94.2476 303.027V303.029L94.2836 303.032C94.694 303.08 95.1076 303.109 95.5274 303.108C95.9471 303.109 96.3612 303.08 96.7705 303.032L96.8071 303.029V303.027C97.4732 302.947 98.1243 302.777 98.767 302.576C99.1336 302.459 99.4992 302.347 99.858 302.196V302.197C99.8508 303.463 99.8498 304.756 99.8514 306.068C99.8539 307.379 99.8618 308.712 99.8752 310.064V310.148C99.8768 310.148 108.808 315.108 130.562 313.828C139.61 313.296 146.218 311.483 150.097 310.105C150.609 299.939 150.463 289.359 149.385 277.211" fill="#3C44A2"/>
</svg>
