<svg width="154" height="583" viewBox="0 0 154 583" fill="none" xmlns="http://www.w3.org/2000/svg">
<path d="M113.102 62.3523C112.763 50.587 112.263 39.3323 110.525 29.6643C109.004 21.2096 105.68 11.1776 98.7372 6.1803C93.6055 2.02297 86.5706 -0.249022 76.8544 0.0216451L76.7852 0.0229472L76.7159 0.0216451C67.0003 -0.249022 59.9648 2.02297 54.8331 6.1803C47.8904 11.1776 44.5664 21.2096 43.0456 29.6643C41.3071 39.3323 40.8076 50.587 40.4691 62.3523C40.1211 74.467 41.143 94.5563 42.4519 102.764C52.0326 100.547 101.538 100.547 111.119 102.764C112.427 94.5563 113.449 74.467 113.102 62.3523Z" fill="#5D3F2D"/>
<path d="M104.825 573.542C106.092 580.263 98.14 581.487 93.7015 581.818C90.0478 582.085 80.0765 584.859 79.8535 576.16C79.7729 573.13 83.6364 565.679 84.3811 557.195C85.1426 548.463 86.4187 540.039 86.6521 535.72C87.6609 517.283 82.8796 478.956 81.7859 451.431C80.9359 430.038 82.7598 417.52 83.4698 406.226C84.0531 396.942 79.9046 390.264 81.1922 374.518C85.4526 322.431 79.7354 313.684 78.1869 290.606C77.4447 279.531 77.3759 251.559 103.532 248.367C122.119 246.098 125.757 265.995 125.786 276.434C125.89 314.434 109.79 356.51 110.453 372.431C111.119 388.431 107.87 395.855 108.119 406.098C108.448 419.643 111.339 438.764 108.637 456.824C105.059 480.742 98.8291 519.316 99.1192 540.431C99.152 542.688 99.3483 551.59 99.8598 555.74C100.78 563.215 103.997 569.148 104.825 573.542" fill="#FBCDA3"/>
<path d="M146.036 201.327C146.42 205.519 142.4 209.154 138.1 210.276C136.131 210.788 130.467 212.035 129.406 202.431C126.208 173.47 117.855 131.474 114.83 125.147C111.844 118.908 112.923 113.96 113.013 110.908C115.928 94.4389 131.365 93.0376 137.498 110.215C138.866 114.038 143.519 126.76 142.998 144.734C142.428 164.262 144.37 183.151 146.036 201.327" fill="#FBCDA3"/>
<path d="M153.048 283.304C153.262 278.491 149.992 275.99 147.706 275.391C144.331 274.51 143.799 275.544 141.335 280.098C139.635 285.267 135.051 284.515 131.977 299.64C131.152 303.706 130.253 307.638 129.731 311.212C129.675 311.562 132.32 312.536 133.615 308.682C136.754 299.382 137.72 300.728 139.524 297.504C139.063 301.622 140.104 305.556 135.899 315.299C133.242 321.458 129.907 324.914 131.962 327.416C134.019 329.916 145.076 320.75 150.774 304.367C152.938 298.158 151.748 292.299 153.048 283.304" fill="#FBCDA3"/>
<path d="M141.336 280.098C141.336 280.098 141.649 287.264 146.58 287.812C149.065 288.088 152.591 286.682 153.093 282.163C153.405 279.33 153.213 276.012 153.296 272.515C154.372 228.212 152.323 216.63 146.615 199.992C145.204 195.888 140.877 190.227 135.728 192.57C129.804 195.264 129.64 200.084 129.747 204.535C130.345 229.434 137.336 243.58 141.091 274.262C141.409 276.863 141.453 278.675 141.336 280.098" fill="#FBCDA3"/>
<path d="M48.7466 573.542C47.4794 580.263 55.4314 581.487 59.8699 581.818C63.5237 582.085 73.495 584.859 73.7179 576.16C73.7986 573.13 69.9351 565.679 69.1903 557.195C68.4289 548.463 67.1529 540.039 66.9195 535.72C65.9106 517.283 70.6919 478.956 71.7857 451.431C72.6362 430.038 70.8117 417.52 70.1018 406.226C69.5185 396.942 73.6674 390.264 72.3794 374.518C68.119 322.431 73.8362 313.684 75.3846 290.606C76.1267 279.531 76.1955 251.559 50.0393 248.367C31.4523 246.098 27.8142 265.995 27.7857 276.434C27.6819 314.434 43.7825 356.51 43.119 372.431C42.4523 388.431 45.7013 395.855 45.4523 406.098C45.1231 419.643 42.2325 438.764 44.9346 456.824C48.5127 480.742 54.7429 519.316 54.4523 540.431C54.4199 542.688 54.2231 551.59 53.7117 555.74C52.7923 563.215 49.5747 569.148 48.7466 573.542Z" fill="#FBCDA3"/>
<path d="M7.53332 201.327C7.14895 205.519 11.1693 209.154 15.4697 210.276C17.4391 210.788 23.1031 212.035 24.164 202.431C27.362 173.47 35.7145 131.474 38.7407 125.147C41.7255 118.908 40.6473 113.96 40.5573 110.908C37.6427 94.4389 22.2057 93.0376 16.0719 110.215C14.7047 114.038 10.051 126.76 10.5719 144.734C11.1417 164.262 9.20103 183.151 7.53332 201.327Z" fill="#FBCDA3"/>
<path d="M0.521674 283.304C0.308133 278.491 3.57636 275.99 5.86438 275.391C9.23782 274.51 9.76958 275.544 12.2347 280.098C13.9337 285.267 18.5175 284.515 21.5919 299.64C22.4175 303.706 23.3159 307.638 23.8378 311.212C23.8941 311.562 21.2493 312.536 19.9539 308.682C16.8159 299.382 15.8482 300.728 14.0451 297.504C14.5061 301.622 13.4654 305.556 17.6701 315.299C20.3274 321.458 23.6623 324.914 21.6077 327.416C19.5503 329.916 8.49302 320.75 2.79512 304.367C0.63209 298.158 1.82116 292.299 0.521674 283.304" fill="#FBCDA3"/>
<path d="M12.2354 280.098C12.2354 280.098 11.9213 287.264 6.99111 287.812C4.50518 288.088 0.980694 286.682 0.47809 282.163C0.16559 279.33 0.358298 276.012 0.274964 272.515C-0.800557 228.212 1.24892 216.63 6.9557 199.992C8.36715 195.888 12.6942 190.227 17.8426 192.57C23.7666 195.264 23.9306 200.084 23.824 204.535C23.226 229.434 16.2354 243.58 12.4802 274.262C12.1625 276.863 12.1182 278.675 12.2354 280.098" fill="#FBCDA3"/>
<path d="M115.418 158.478C116.526 152.542 122.931 147.679 118.472 126.53L132.075 100.627C122.953 97.127 120.84 99.4043 112.008 97.127C103.494 94.9296 93.1466 91.543 91.1054 83.4856C89.6288 77.6736 88.5376 56.2296 88.5376 56.2296L76.8424 56.187H76.7304L65.0346 56.2296C65.0346 56.2296 63.9434 77.6736 62.4668 83.4856C60.4258 91.543 50.0783 94.9296 41.5647 97.127C32.7319 99.4043 30.6195 97.127 21.498 100.627L35.1012 126.53C30.6419 147.679 37.046 152.542 38.1538 158.478C40.8204 172.764 44.7862 181.098 44.7862 210.098C44.7862 241.027 27.7856 230.015 28.0362 282.598C28.0362 282.598 61.0325 289.39 76.7304 290.69V290.7L76.7846 290.695H76.7876L76.8424 290.7V290.69C92.5403 289.39 125.536 282.598 125.536 282.598C125.787 230.015 108.786 241.027 108.786 210.098C108.786 181.098 112.752 172.764 115.418 158.478Z" fill="#FBCDA3"/>
<path d="M63.1777 79.379C63.3783 77.8523 63.5668 76.1136 63.7417 74.2856C63.7428 74.2856 63.7439 74.287 63.7444 74.287C63.5688 76.1136 63.3793 77.855 63.1777 79.379V79.379ZM90.3569 79.111C90.1684 77.6523 89.9903 76.0083 89.8245 74.287C89.8256 74.287 89.8261 74.2856 89.8272 74.2856C89.9923 76.007 90.1688 77.651 90.3569 79.111" fill="#553928"/>
<path d="M76.786 90.895H76.7845H76.7829C70.2297 89.7843 65.1777 83.1083 63.1777 79.3789C63.3793 77.8549 63.5688 76.1136 63.7444 74.287C66.8709 76.855 70.5969 78.759 73.3616 79.7856C74.7939 80.3429 75.9969 80.6483 76.7829 80.6616H76.7845H76.786C77.572 80.6483 78.7756 80.3429 80.2075 79.7856C82.972 78.759 86.698 76.855 89.8245 74.287C89.9903 76.0083 90.1684 77.6523 90.3569 79.1109C90.3684 79.2016 90.3797 79.2896 90.3912 79.3789C88.3917 83.1083 83.3392 89.7843 76.786 90.895" fill="#E5BB94"/>
<path d="M76.8553 15.547L76.7861 15.5496L76.7168 15.547C58.6533 15.755 52.1387 31.043 52.1387 44.2577C52.1387 54.1403 55.4137 56.0923 57.9752 66.2163C60.1543 74.831 73.7861 80.647 76.7861 80.647C79.7861 80.647 93.4179 74.831 95.5976 66.2163C98.1585 56.0923 101.433 54.1403 101.433 44.2577C101.433 31.043 94.9189 15.755 76.8553 15.547Z" fill="#FBCDA3"/>
<path d="M102.949 42.835C106.314 41.839 108.753 41.0657 112.08 39.963C111.738 36.4803 111.362 33.1083 110.959 29.907C109.637 19.4217 106.116 11.419 99.1734 6.42166C94.0422 2.26566 87.0067 -0.00766722 77.2879 0.262999C67.5718 -0.00766722 60.5365 2.26566 55.4051 6.42166C48.4625 11.419 45.1379 21.451 43.6177 29.907C42.4734 36.2683 41.8707 43.323 41.4922 50.7523C45.3666 50.6017 45.7859 50.4963 49.6521 50.2056C49.4541 48.631 51.4265 46.5577 51.4265 44.5497C51.4265 35.4643 56.6041 26.611 62.1125 21.331C64.9567 18.6016 101.962 30.2163 102.949 42.835" fill="#5D3F2D"/>
<path d="M54.2455 45.3936C54.2455 45.3936 51.4808 42.1776 50.5007 44.8203C48.6881 49.7043 55.1308 55.1203 55.4121 56.0923C55.6892 57.0656 54.2455 45.3936 54.2455 45.3936Z" fill="#FBCDA3"/>
<path d="M58.2988 45.911C58.2988 45.911 60.8926 48.4136 64.0723 48.675C69.053 49.087 70.1988 46.9696 70.1988 46.9696C70.1988 46.9696 69.8734 43.243 65.1936 43.2163C60.7467 43.191 58.2988 45.911 58.2988 45.911Z" fill="white"/>
<path d="M61.541 45.6096C61.541 47.2483 62.9056 48.5776 64.5878 48.5776C66.2686 48.5776 67.6358 47.2483 67.6358 45.6096C67.6358 43.9723 66.2686 42.643 64.5878 42.643C62.9056 42.643 61.541 43.9723 61.541 45.6096Z" fill="#3871C1"/>
<path d="M64.5875 47.5283C63.4989 47.5283 62.6172 46.6683 62.6172 45.6096C62.6172 44.5523 63.4989 43.6923 64.5875 43.6923C65.6751 43.6923 66.5547 44.5523 66.5547 45.6096C66.5547 46.6683 65.6751 47.5283 64.5875 47.5283Z" fill="#231F20"/>
<path d="M62.5273 45.0416C62.5273 45.3403 62.7825 45.5816 63.0976 45.5816C63.4112 45.5816 63.6664 45.3403 63.6664 45.0416V44.8469C63.6664 44.5496 63.4112 44.3083 63.0976 44.3083C62.7825 44.3083 62.5273 44.5496 62.5273 44.8469V45.0416Z" fill="white"/>
<path d="M70.1999 46.9349C69.9223 45.5816 69.4379 44.5923 68.2911 43.7389C66.2583 42.2229 63.9535 42.3443 61.7217 43.3336C60.3676 43.9296 58.9108 45.0323 57.3561 44.9616C57.0395 44.9443 56.1113 44.6616 56.0332 44.2883C56.852 47.5283 60.7348 45.075 62.3421 44.3283C65.4525 42.8803 68.8588 43.6283 70.1999 46.9349" fill="#6F4323"/>
<path d="M71.389 40.7363C71.389 39.4509 66.2025 37.6856 64.2431 37.3683C61.489 37.1443 58.8707 37.5003 56.5078 39.019C58.989 38.675 61.2598 38.0376 64.027 38.4896C65.9942 38.963 71.389 42.4949 71.389 40.7363Z" fill="#91816F"/>
<path d="M99.3251 45.3936C99.3251 45.3936 102.09 42.1776 103.07 44.8203C104.882 49.7043 98.4396 55.1203 98.1584 56.0923C97.8812 57.0656 99.3251 45.3936 99.3251 45.3936Z" fill="#FBCDA3"/>
<path d="M95.2711 45.911C95.2711 45.911 92.6774 48.4136 89.4976 48.675C84.517 49.087 83.3711 46.9696 83.3711 46.9696C83.3711 46.9696 83.6967 43.243 88.3763 43.2163C92.8232 43.191 95.2711 45.911 95.2711 45.911Z" fill="white"/>
<path d="M92.0303 45.6096C92.0303 47.2483 90.6657 48.5776 88.9834 48.5776C87.3027 48.5776 85.9355 47.2483 85.9355 45.6096C85.9355 43.9723 87.3027 42.643 88.9834 42.643C90.6657 42.643 92.0303 43.9723 92.0303 45.6096Z" fill="#3871C1"/>
<path d="M88.9828 47.5283C90.0714 47.5283 90.9531 46.6683 90.9531 45.6096C90.9531 44.5523 90.0714 43.6923 88.9828 43.6923C87.8959 43.6923 87.0156 44.5523 87.0156 45.6096C87.0156 46.6683 87.8959 47.5283 88.9828 47.5283Z" fill="#231F20"/>
<path d="M91.0434 45.0416C91.0434 45.3403 90.7882 45.5816 90.4731 45.5816C90.1595 45.5816 89.9043 45.3403 89.9043 45.0416V44.8469C89.9043 44.5496 90.1595 44.3083 90.4731 44.3083C90.7882 44.3083 91.0434 44.5496 91.0434 44.8469V45.0416Z" fill="white"/>
<path d="M83.3711 46.9349C83.6487 45.5816 84.1331 44.5923 85.28 43.7389C87.3128 42.2229 89.6175 42.3443 91.8492 43.3336C93.2034 43.9296 94.6602 45.0323 96.2148 44.9616C96.5315 44.9443 97.4596 44.6616 97.5378 44.2883C96.7191 47.5283 92.8362 45.075 91.2295 44.3283C88.1186 42.8803 84.7123 43.6283 83.3711 46.9349" fill="#6F4323"/>
<path d="M82.1816 40.7363C82.1816 39.4509 87.3682 37.6856 89.3275 37.3683C92.0816 37.1443 94.6999 37.5003 97.0635 39.019C94.5816 38.675 92.3108 38.0376 89.5436 38.4896C87.5764 38.963 82.1816 42.4949 82.1816 40.7363Z" fill="#91816F"/>
<path d="M76.8056 60.847L76.7848 60.8457L76.7638 60.847C75.0217 60.6883 73.4228 60.2937 72.3066 59.023C73.0296 59.4697 74.8733 59.6923 76.7154 59.6923L76.7848 59.691L76.854 59.6923C78.6962 59.6923 80.54 59.4697 81.2629 59.023C80.1466 60.2937 78.5477 60.6883 76.8056 60.847" fill="#D0A986"/>
<path d="M78.2191 65.2083C77.5456 65.123 77.2358 65.6963 76.7867 65.7563H76.7852H76.7837C76.3347 65.6963 76.0248 65.123 75.3519 65.2083C72.0779 65.619 69.6758 68.0883 69.6758 68.0883C69.6758 68.0883 72.8566 71.095 76.7837 71.095H76.7867C80.7138 71.095 83.8946 68.0883 83.8946 68.0883C83.8946 68.0883 81.4924 65.619 78.2191 65.2083Z" fill="#EF7889"/>
<path d="M78.2213 65.2083C77.5478 65.1229 77.2354 65.6963 76.7864 65.759L76.7849 65.7576L76.7833 65.759C76.3344 65.6963 76.0218 65.1229 75.3484 65.2083C72.0713 65.6149 69.6797 68.087 69.6797 68.087H69.7249C70.6364 67.999 73.4656 67.3736 75.2188 67.9336C75.6921 68.0883 76.3968 68.1403 76.7416 68.1496V68.1523L76.7833 68.1496H76.7864L76.8281 68.1523V68.1496C77.1729 68.1403 77.8776 68.0883 78.3516 67.9336C80.1041 67.3736 82.9333 67.999 83.8448 68.087H83.8906C83.8906 68.087 81.4984 65.6149 78.2213 65.2083" fill="#F35E77"/>
<path d="M111.156 226.32C104.573 207.912 112.072 176.4 115.417 158.478C115.417 152.676 122.344 148.047 118.936 128.942C118.786 128.144 118.645 127.36 118.47 126.53C118.47 126.53 116 115.43 119.089 98.2656C116.353 98.1189 116.367 98.251 112.006 97.127C111.238 96.9283 110.452 96.7163 109.661 96.495L109.613 96.5176L109.612 97.851C107.452 133.098 83.8944 139.098 77.1642 140.072C77.0366 140.091 76.9272 140.067 76.8414 140.06V140.054L76.7856 140.058H76.7851L76.7294 140.054V140.06C76.6428 140.067 76.5335 140.091 76.4064 140.072C69.6756 139.098 46.1184 133.098 43.958 97.851L43.957 96.5176L43.9095 96.495C43.1184 96.7163 42.3324 96.9283 41.5636 97.127C37.2032 98.251 37.2179 98.1189 34.4808 98.2656C37.5704 115.43 35.1002 126.53 35.1002 126.53C34.9251 127.36 34.7846 128.144 34.634 128.942C31.2262 148.047 38.1527 152.676 38.1527 158.478C40.1012 168.914 49.5851 206.267 42.4136 226.32C38.7199 236.662 31.7876 240.634 29.1152 261.706C50.2966 271.756 74.1882 289.704 75.3262 290.563C75.8064 290.608 76.2767 290.652 76.7294 290.69V290.7L76.7835 290.695H76.7851H76.7866L76.8414 290.7V290.69C77.2939 290.652 77.7642 290.608 78.2444 290.563C79.3819 289.704 103.274 271.756 124.455 261.706C121.784 240.647 114.828 236.599 111.156 226.32" fill="#3BAE5F"/>
<path d="M39.0905 163.095C38.7811 161.674 38.48 160.216 38.1931 158.694C38.4748 160.191 38.7707 161.622 39.0748 163.02C39.08 163.046 39.0853 163.07 39.0905 163.095V163.095ZM38.1884 158.668C38.1853 158.652 38.1827 158.636 38.1796 158.62C38.1821 158.636 38.1857 158.652 38.1884 158.668ZM38.1696 158.568C38.1687 158.562 38.1676 158.556 38.166 158.55C38.1676 158.555 38.1687 158.563 38.1696 158.568Z" fill="#E9E8E8"/>
<path d="M39.0758 163.02C38.7716 161.622 38.4758 160.191 38.194 158.694C38.1924 158.686 38.191 158.678 38.1894 158.668C38.1867 158.652 38.1831 158.636 38.1806 158.62C38.1774 158.603 38.1738 158.586 38.1706 158.568C38.1696 158.563 38.1686 158.555 38.167 158.55C38.1648 158.538 38.1628 158.526 38.1602 158.512C38.3815 159.695 38.6982 161.219 39.0758 163.02" fill="#E5BB94"/>
<path d="M111.209 178.194C111.25 173.198 110.759 170.426 108.665 168.27C104.126 163.596 89.119 162.999 81.1481 162.999C79.1731 162.999 77.6299 163.035 76.7851 163.055C75.9398 163.035 74.3981 162.999 72.4226 162.999C64.4507 162.999 49.4439 163.596 44.9054 168.27C42.8117 170.426 42.3205 173.198 42.3611 178.194C41.3559 172.646 40.1737 168.078 39.0909 163.095C39.0857 163.07 39.0803 163.046 39.0751 163.02C38.6975 161.219 38.3809 159.695 38.1595 158.512C38.1575 158.502 38.1554 158.49 38.1527 158.478C38.1527 153.82 33.6898 149.919 33.6914 138.678C33.6918 135.916 33.9622 132.711 34.6341 128.942C34.469 137.41 37.0127 153.932 49.1409 157.542C52.0622 158.411 54.8737 158.732 57.569 158.732C64.9054 158.732 71.3731 156.351 76.7851 156.162C82.1975 156.351 88.6637 158.732 96.0013 158.732C98.6961 158.732 101.508 158.411 104.429 157.542C116.558 153.932 119.102 137.41 118.936 128.942C119.608 132.711 119.878 135.916 119.879 138.678C119.881 149.919 115.417 153.82 115.417 158.478C114.119 165.432 112.515 170.986 111.209 178.194Z" fill="#369E55"/>
</svg>
