<svg width="215" height="581" viewBox="0 0 215 581" fill="none" xmlns="http://www.w3.org/2000/svg">
<path d="M169.198 224.255C167.395 212.12 162.973 191.951 167.278 172.357C170.265 158.772 165.939 148.731 165.939 146.76C165.939 112.273 174.069 99.5946 174.069 99.5946C169.783 98.7412 165.631 96.3973 153.841 92.5826C144.758 89.6439 135.095 88.3226 131.25 82.6239C127.374 76.8799 127.306 75.3386 126.954 66.8879C126.659 59.7666 112.509 57.6946 108.407 57.3013V57.2066L107.626 57.2039V57.2026H107.567H107.377H107.186H107.129V57.2039L106.346 57.2066V57.3013C102.245 57.6946 88.0954 59.7666 87.8007 66.8879C87.4474 75.3386 87.3807 76.8799 83.5034 82.6239C79.658 88.3226 69.9954 89.6439 60.9127 92.5826C49.122 96.3973 44.97 98.7412 40.6847 99.5946C40.6847 99.5946 48.8154 112.273 48.8154 146.76C48.8154 148.731 44.49 158.772 47.4754 172.357C51.7807 191.951 47.358 212.12 45.5553 224.255C44.202 233.365 40.078 256.036 40.082 277.877C40.0834 279.789 45.686 278.119 52.9047 276.447C60.7474 274.632 70.498 272.817 77.0513 275.593C86.0393 279.4 94.2554 301.551 106.346 303.028V303.029L106.382 303.032C106.629 303.063 106.879 303.065 107.129 303.077V303.108L107.377 303.092L107.626 303.108V303.077C107.874 303.065 108.125 303.063 108.371 303.032L108.407 303.029V303.028C120.498 301.551 128.715 279.4 137.702 275.593C144.255 272.817 154.006 274.632 161.847 276.447C169.067 278.119 174.67 279.789 174.67 277.877C174.675 256.036 170.553 233.365 169.198 224.255" fill="#FBCDA3"/>
<path d="M174.916 277.877C174.13 268.866 168.02 247.513 137.766 251.916C118.254 254.756 108.722 291.45 108.655 303.026C108.53 324.281 112.834 351.617 116.394 373.71C117.182 378.61 116.3 383.484 116.11 388.046C115.466 403.613 119.086 410.16 118.479 419.316C117.74 430.452 113.726 440.23 114.61 461.326C115.748 488.47 125.916 519.769 124.866 537.952C124.623 542.211 124.059 546.781 123.266 555.392C122.491 563.757 119.235 571.652 119.319 574.64C119.551 583.217 129.163 579.937 132.963 579.673C137.582 579.348 157.211 577.293 155.892 570.661C155.031 566.332 150.504 562.159 149.548 554.789C149.016 550.694 144.915 541.918 144.938 539.692C145.343 499.561 156.515 479.469 156.86 455.62C157.092 439.833 154.803 428.984 153.731 418.933C152.652 408.88 160.583 385.466 163.822 372.858C171.364 343.49 177.123 303.108 174.916 277.877Z" fill="#FBCDA3"/>
<path d="M199.478 230.791C197.303 231.085 193.511 229.091 185.952 216.06C177.907 202.192 164.096 163.979 160.435 142.024C159.322 135.352 154.87 125.323 154.307 123.168C150.436 108.356 155.624 96.2279 155.658 93.0972C167.408 94.4332 189.999 101.901 194.86 131.692C196.359 140.883 196.646 146.052 201.435 158.151C206.648 171.313 208.332 196.621 209.196 211.209C209.416 214.923 210.327 229.319 199.478 230.791" fill="#FBCDA3"/>
<path d="M209.365 286.58C209.548 281.568 205.28 281.132 202.35 280.309C198.032 279.097 196.458 280.043 193.402 284.588C191.336 289.844 186.388 288.753 182.756 304.3C181.781 308.473 180.709 312.508 180.11 316.203C180.046 316.56 183.44 317.804 185.018 313.888C188.841 304.44 190.102 305.929 192.34 302.712C191.83 306.979 193.233 311.184 188.057 321.003C184.785 327.205 180.6 330.535 183.269 333.328C185.938 336.117 199.405 328.553 206.818 310.857C209.885 303.537 211.888 294.729 209.365 286.58" fill="#FBCDA3"/>
<path d="M193.181 285.635V285.629C194.113 291.573 197.281 291.744 199.879 291.888C202.478 292.027 209.626 296.347 210.271 291.905C210.673 289.121 210.326 285.824 210.746 282.4C215.651 242.519 216.025 221.717 204.875 205.393C202.446 201.837 196.717 195.769 191.197 197.689C183.067 200.513 182.467 220.505 182.455 224.895C182.395 249.456 190.955 263.939 193.086 279.875C193.429 282.44 193.341 284.237 193.181 285.635" fill="#FBCDA3"/>
<path d="M39.8343 277.877C40.6209 268.866 46.7302 247.513 76.9849 251.916C96.4982 254.756 106.028 291.45 106.096 303.026C106.221 324.281 101.917 351.617 98.3569 373.71C97.5689 378.61 98.4503 383.484 98.6409 388.046C99.2849 403.613 95.6649 410.16 96.2716 419.316C97.0103 430.452 101.026 440.23 100.141 461.326C99.0023 488.47 88.8342 519.769 89.8849 537.952C90.1276 542.211 90.6916 546.781 91.4849 555.392C92.2596 563.757 95.5169 571.652 95.4316 574.64C95.1996 583.217 85.5876 579.937 81.7876 579.673C77.1689 579.348 57.5396 577.293 58.8582 570.661C59.7196 566.332 64.2463 562.159 65.2023 554.789C65.7343 550.694 69.8356 541.918 69.8129 539.692C69.4076 499.561 58.2356 479.469 57.8889 455.62C57.6582 439.833 59.9476 428.984 61.0196 418.933C62.0982 408.88 54.1676 385.466 50.9302 372.858C43.3862 343.49 37.6263 303.108 39.8343 277.877" fill="#FBCDA3"/>
<path d="M15.2733 230.791C17.448 231.085 21.2399 229.091 28.7986 216.06C36.8439 202.192 50.6546 163.979 54.3173 142.024C55.4293 135.352 59.8813 125.323 60.444 123.168C64.316 108.356 59.1266 96.2279 59.0933 93.0972C47.3413 94.4332 24.7519 101.901 19.8906 131.692C18.3906 140.883 18.1053 146.052 13.316 158.151C8.10396 171.313 6.41993 196.621 5.5546 211.209C5.3346 214.923 4.42528 229.319 15.2733 230.791" fill="#FBCDA3"/>
<path d="M5.38731 286.58C5.20464 281.568 9.47132 281.132 12.4007 280.309C16.7207 279.097 18.2927 280.043 21.3473 284.588C23.4153 289.844 28.3646 288.753 31.9953 304.3C32.97 308.473 34.042 312.508 34.6393 316.203C34.7047 316.56 31.3113 317.804 29.7327 313.888C25.91 304.44 24.6487 305.929 22.4113 302.712C22.9207 306.979 21.518 311.184 26.694 321.003C29.966 327.205 34.1527 330.535 31.482 333.328C28.8127 336.117 15.3447 328.553 7.93265 310.857C4.86732 303.537 2.86464 294.729 5.38731 286.58" fill="#FBCDA3"/>
<path d="M21.5683 285.635V285.629C20.6363 291.573 17.4696 291.744 14.871 291.888C12.2736 292.027 5.12431 296.347 4.47898 291.905C4.07631 289.121 4.42564 285.824 4.0043 282.4C-0.899697 242.519 -1.27569 221.717 9.87631 205.393C12.3043 201.837 18.0336 195.769 23.5536 197.689C31.6816 200.513 32.283 220.505 32.295 224.895C32.355 249.456 23.795 263.939 21.6656 279.875C21.323 282.44 21.4096 284.237 21.5683 285.635Z" fill="#FBCDA3"/>
<path d="M169.198 224.255C167.395 212.12 162.973 191.95 167.278 172.357C170.265 158.772 167.139 150.764 165.939 146.76C165.769 146.189 165.601 145.643 165.431 145.084C160.098 127.439 155.918 115.376 157.449 93.0972C157.449 93.0972 144.543 89.7492 143.259 89.3852L143.231 89.3772H143.23L143.206 89.5159C140.834 103.928 127.71 124.613 113.455 129.179C111.501 129.728 109.473 130.043 107.377 130.087C105.279 130.043 103.251 129.728 101.297 129.179C87.0434 124.613 73.9181 103.928 71.5475 89.5159L71.5221 89.3772L71.4941 89.3852C70.2088 89.7492 57.3048 93.0972 57.3048 93.0972C58.8341 115.376 54.6554 127.439 49.3221 145.084C49.1528 145.643 48.9848 146.189 48.8141 146.76C47.6128 150.764 44.4888 158.772 47.4741 172.357C51.7795 191.95 47.3568 212.12 45.5554 224.255C44.5754 230.841 42.1514 244.513 40.8848 259.836C60.6021 270.851 102.149 271.52 107.127 271.56V271.562H107.129C107.129 271.562 107.229 271.561 107.377 271.561C107.523 271.561 107.625 271.562 107.625 271.562H107.626V271.56C112.603 271.52 154.15 270.851 173.869 259.836C172.602 244.513 170.177 230.841 169.198 224.255Z" fill="#DBEFF5"/>
<path d="M174.917 277.877C174.863 277.235 174.776 276.523 174.659 275.768C174.567 268.008 173.985 260.205 173.221 252.996C163 255.595 139.888 263.565 107.376 263.607C74.8654 263.565 51.7508 255.595 41.5321 252.996C40.7668 260.205 40.1841 268.008 40.0948 275.768C39.9774 276.523 39.8894 277.235 39.8348 277.877C39.0268 287.116 39.2894 298.393 40.3148 310.412C45.2681 311.739 53.1361 313.336 63.6148 313.828C85.8054 314.872 101.096 311.888 105.961 310.756C106.06 308.112 106.111 305.525 106.096 303.027L106.095 302.984L106.345 303.027V303.029L106.381 303.032C106.628 303.063 106.879 303.065 107.128 303.077V303.108L107.376 303.092L107.625 303.108V303.077C107.873 303.065 108.124 303.063 108.371 303.032L108.407 303.029V303.027L108.657 302.984L108.656 303.027C108.64 305.525 108.692 308.112 108.791 310.756C113.656 311.888 128.947 314.872 151.137 313.828C161.616 313.336 169.485 311.739 174.439 310.412C175.463 298.393 175.725 287.116 174.917 277.877" fill="#3C44A2"/>
<path d="M127.328 73.1492C127.146 71.5146 127.064 69.5412 126.953 66.8879C126.914 65.9546 126.633 65.1105 126.173 64.3425C124.781 64.2425 107.515 70.3399 107.412 70.3519L107.376 70.3466L107.34 70.3519C107.237 70.3399 89.9705 64.2425 88.5785 64.3425C88.1185 65.1105 87.8358 65.9546 87.7998 66.8879C87.6878 69.5412 87.6052 71.5132 87.4238 73.1492C91.3585 79.2932 100.549 86.4639 107.345 86.4639H107.407C114.201 86.4639 123.393 79.2946 127.328 73.1492" fill="#EAC097"/>
<path d="M139.712 23.5065C139.324 21.3665 139.939 19.4639 139.206 17.3785C138.651 15.8012 136.958 14.5585 136.08 13.2092C134.984 11.5212 134.631 10.1479 133.399 8.52119C132.039 6.72919 130.28 6.43319 128.434 5.38786C125.863 3.93186 124.806 2.42521 121.94 1.80654C117.028 0.743876 112.548 -0.114819 107.376 0.0105143C102.204 -0.114819 97.7244 0.743876 92.8124 1.80654C89.9471 2.42521 88.8897 3.93186 86.3204 5.38786C84.4724 6.43319 82.7137 6.72919 81.3537 8.52119C80.1217 10.1479 79.7684 11.5212 78.6724 13.2092C77.7951 14.5585 76.1017 15.8012 75.5471 17.3785C74.8137 19.4639 75.4284 21.3665 75.0404 23.5065C74.6711 25.5212 73.6737 27.5226 73.8817 29.6199C74.0884 31.6892 75.2737 33.4665 74.9217 35.7145C74.5737 37.9425 75.1631 40.2865 76.2644 42.3945C77.7457 45.2279 76.5391 46.5079 77.5591 49.4972C78.7511 53.0039 80.4231 56.4265 82.8484 59.3732C85.5697 62.6825 89.3071 65.3986 93.7391 66.4559L107.376 67.0772L121.014 66.4559C125.447 65.3986 129.183 62.6825 131.904 59.3732C134.33 56.4265 136.002 53.0039 137.194 49.4972C138.214 46.5079 137.008 45.2279 138.488 42.3945C139.59 40.2865 140.179 37.9425 139.831 35.7145C139.479 33.4665 140.664 31.6892 140.871 29.6199C141.079 27.5226 140.082 25.5212 139.712 23.5065" fill="#795C48"/>
<path d="M132.56 42.4892C132.56 42.4892 134.591 38.9879 135.312 41.8652C136.644 47.1812 131.91 53.0772 131.702 54.1345C131.499 55.1932 132.56 42.4892 132.56 42.4892Z" fill="#FBCDA3"/>
<path d="M82.1934 42.4892C82.1934 42.4892 80.1627 38.9879 79.4414 41.8652C78.1081 47.1812 82.8427 53.0772 83.0507 54.1345C83.2547 55.1932 82.1934 42.4892 82.1934 42.4892" fill="#FBCDA3"/>
<path d="M132.122 39.9826C131.208 35.0532 131.801 30.0465 130.886 26.8572C129.933 23.5425 129.241 22.2052 127.66 21.4265C125.833 20.5279 123.017 20.9545 118.554 21.3799C115.609 21.6625 111.946 21.9439 107.377 21.8452C102.808 21.9439 99.1449 21.6625 96.1995 21.3799C91.7369 20.9545 88.9209 20.5279 87.0942 21.4265C85.5129 22.2052 84.8209 23.5425 83.8675 26.8572C82.9529 30.0465 83.5462 35.0532 82.6329 39.9826C80.6955 50.4292 82.7555 56.6092 85.0595 64.4439C86.7595 70.2386 94.0689 80.3905 107.377 82.1972C120.685 80.3905 127.994 70.2386 129.694 64.4439C131.997 56.6092 134.057 50.4292 132.122 39.9826Z" fill="#FBCDA3"/>
<path d="M107.386 56.5826H107.376H107.367C105.343 56.4346 103.483 56.0693 102.186 54.8893C103.027 55.3026 105.17 55.5106 107.311 55.5106L107.376 55.5092L107.442 55.5106C109.582 55.5106 111.726 55.3026 112.567 54.8893C111.27 56.0693 109.41 56.4346 107.386 56.5826" fill="#E8BD96"/>
<path d="M114.186 66.4585C112.186 66.0465 111.483 65.3692 108.818 65.0212C108.161 64.9306 107.813 65.2692 107.377 65.3399C106.941 65.2692 106.593 64.9306 105.935 65.0212C103.27 65.3692 102.567 66.0465 100.567 66.4585C100.335 66.5052 99.9167 66.4706 99.8167 66.5892C99.622 66.8199 101.262 67.7866 102.071 68.0852C102.959 68.4159 105.179 68.7679 107.377 68.7692C109.574 68.7679 111.794 68.4159 112.682 68.0852C113.493 67.7866 115.131 66.8199 114.937 66.5892C114.837 66.4706 114.418 66.5052 114.186 66.4585" fill="#ECB593"/>
<path d="M114.186 66.4586C112.186 66.0466 111.483 65.3692 108.818 65.0212C108.16 64.9306 107.812 65.2692 107.376 65.3399C106.94 65.2692 106.592 64.9306 105.935 65.0212C103.27 65.3692 102.567 66.0466 100.567 66.4586C100.335 66.5052 99.9164 66.4706 99.8164 66.5892L99.8204 66.6479C99.931 66.6666 100.104 66.6786 100.391 66.6612C100.4 66.6612 104.142 66.1172 105.854 66.7012C106.318 66.8612 107.011 66.9066 107.347 66.9186H107.406C107.742 66.9066 108.435 66.8612 108.899 66.7012C110.611 66.1172 114.352 66.6612 114.362 66.6612C114.648 66.6786 114.822 66.6666 114.932 66.6479L114.936 66.5892C114.836 66.4706 114.418 66.5052 114.186 66.4586" fill="#E1AE8D"/>
<path d="M125.699 41.8106C125.699 41.8106 122.899 44.3359 120.153 44.4066C115.85 44.5199 114.943 43.0826 114.943 43.0826C114.943 43.0826 115.37 39.9213 119.399 40.0973C123.226 40.2639 125.699 41.8106 125.699 41.8106" fill="white"/>
<path d="M121.838 42.4732C121.898 41.2852 120.997 40.2746 119.801 40.1332L119.569 40.1119C118.326 40.0879 117.276 41.0292 117.216 42.2492C117.17 43.1612 117.693 43.9706 118.474 44.3639C118.969 44.4039 119.518 44.4239 120.152 44.4066C120.301 44.4039 120.449 44.3679 120.601 44.3492C121.301 43.9906 121.796 43.2999 121.838 42.4732" fill="#3871C1"/>
<path d="M119.454 43.8159C120.28 43.8559 120.98 43.2372 121.02 42.4346C121.062 41.6319 120.424 40.9452 119.599 40.9066C118.775 40.8666 118.075 41.4866 118.035 42.2893C117.995 43.0919 118.63 43.7759 119.454 43.8159" fill="#231F20"/>
<path d="M121.111 42.0066C121.099 42.2319 120.899 42.4065 120.659 42.3932C120.422 42.3825 120.235 42.1905 120.249 41.9652L120.255 41.8159C120.267 41.5892 120.471 41.4159 120.706 41.4279C120.947 41.4385 121.131 41.6319 121.119 41.8572L121.111 42.0066Z" fill="white"/>
<path d="M114.943 43.0826C115.203 41.9812 115.514 40.9519 116.639 40.5012C120.661 38.8879 124.833 41.5306 125.673 41.7172C124.551 41.8612 123.274 41.0132 121.773 40.7986C118.435 40.3199 116.153 40.4012 114.943 43.0826Z" fill="#91816F"/>
<path d="M113.898 37.4972C113.615 34.7079 120.151 34.6599 122.179 34.9425C125.131 35.2145 126.863 36.6679 126.574 37.5252C124.194 36.9385 124.079 36.6265 121.223 36.6679C115.875 36.7452 114.046 38.9452 113.898 37.4972Z" fill="#8F8780"/>
<path d="M89.0527 41.8106C89.0527 41.8106 91.8527 44.3359 94.6007 44.4066C98.9021 44.5199 99.8088 43.0826 99.8088 43.0826C99.8088 43.0826 99.3821 39.9213 95.3527 40.0973C91.5261 40.2639 89.0527 41.8106 89.0527 41.8106Z" fill="white"/>
<path d="M92.913 42.4732C92.853 41.2852 93.7543 40.2746 94.9503 40.1332L95.1823 40.1119C96.425 40.0879 97.4756 41.0292 97.5356 42.2492C97.581 43.1612 97.0583 43.9706 96.277 44.3639C95.7823 44.4039 95.233 44.4239 94.601 44.4066C94.4503 44.4039 94.3023 44.3679 94.1503 44.3492C93.4503 43.9906 92.9557 43.2999 92.913 42.4732" fill="#3871C1"/>
<path d="M95.2971 43.8159C94.4704 43.8559 93.7704 43.2372 93.7304 42.4346C93.6891 41.6319 94.3264 40.9452 95.1517 40.9066C95.9757 40.8666 96.6757 41.4866 96.7171 42.2893C96.7557 43.0919 96.1211 43.7759 95.2971 43.8159" fill="#231F20"/>
<path d="M93.6414 42.0066C93.6534 42.2319 93.8534 42.4065 94.0934 42.3932C94.3307 42.3825 94.5174 42.1905 94.504 41.9652L94.4974 41.8159C94.4854 41.5892 94.2814 41.4159 94.0467 41.4279C93.8054 41.4385 93.6214 41.6319 93.6334 41.8572L93.6414 42.0066" fill="white"/>
<path d="M99.8094 43.0826C99.5507 41.9812 99.2387 40.9519 98.1121 40.5012C94.0921 38.8879 89.9201 41.5306 89.0801 41.7172C90.2014 41.8612 91.4787 41.0132 92.9814 40.7986C96.3174 40.3199 98.6001 40.4012 99.8094 43.0826" fill="#91816F"/>
<path d="M100.854 37.4972C101.136 34.7079 94.6005 34.6599 92.5725 34.9425C89.6205 35.2145 87.8885 36.6679 88.1778 37.5252C90.5578 36.9385 90.6725 36.6265 93.5285 36.6679C98.8765 36.7452 100.706 38.9452 100.854 37.4972Z" fill="#8F8780"/>
</svg>
