<svg width="243" height="581" viewBox="0 0 243 581" fill="none" xmlns="http://www.w3.org/2000/svg">
<path d="M198.926 248.055C196.7 235.561 175.119 227.857 160.308 230.869C126.739 237.695 121.619 291.533 121.619 303.108C121.619 341.359 127.963 381.623 127.379 386.149C124.82 405.987 128.547 410.269 127.94 419.424C127.202 430.561 123.186 440.339 124.071 461.436C125.21 488.58 134.615 519.409 133.566 537.59C133.323 541.85 132.759 546.418 131.966 555.03C131.191 563.397 127.935 571.29 128.019 574.28C128.25 582.857 143.407 579.938 147.208 579.674C151.827 579.349 168.895 577.295 167.578 570.662C166.716 566.333 162.19 562.159 161.234 554.79C160.702 550.696 156.239 541.888 156.623 539.693C159.928 520.837 174.686 479.617 172.171 455.9C169.91 434.573 168.023 423.888 169.278 413.859C170.51 404.005 169.278 398.523 176.8 378.216C187.768 348.617 203.832 290.501 198.926 248.055" fill="#FBCDA3"/>
<path d="M223.199 228.271C221.003 228.249 217.1 227.133 208.36 214.863C199.059 201.804 184.632 163.292 178.944 141.773C177.214 135.233 169.195 127.315 168.203 125.323C155.747 100.331 171.139 92.6505 178.515 94.3439C209.278 101.407 238.963 149.389 240.366 213.268C240.447 216.987 243.752 228.467 223.199 228.271" fill="#FBCDA3"/>
<path d="M238.768 285.325C239.302 280.671 235.283 279.988 232.562 279.031C228.552 277.623 221.764 278.536 218.536 282.573C216.192 287.333 211.574 285.996 207 300.236C205.774 304.063 204.464 307.748 203.63 311.148C203.542 311.476 209.975 311.352 211.755 307.804C216.07 299.252 217.16 300.721 219.516 297.869C218.723 301.809 221.671 307.189 216.047 315.999C212.494 321.565 208.276 324.393 210.608 327.167C212.942 329.939 226.274 323.771 234.59 307.771C238.028 301.153 240.568 293.08 238.768 285.325" fill="#FBCDA3"/>
<path d="M217.817 284.408C218.739 290.351 226.483 289.148 229.08 289.299C231.677 289.444 237.921 288.445 238.576 284.007C238.983 281.225 238.639 277.924 239.065 274.503C244.039 234.631 245.347 219.156 234.225 202.812C231.804 199.252 226.084 193.175 220.56 195.085C212.789 197.769 209.917 192.924 206.725 221.697C204.196 244.473 217.819 284.411 217.817 284.408Z" fill="#FBCDA3"/>
<path d="M44.3144 248.055C46.5397 235.561 68.1184 227.857 82.9304 230.869C116.5 237.695 121.618 291.533 121.618 303.108C121.618 341.359 115.276 381.623 115.86 386.149C118.42 405.987 114.693 410.269 115.298 419.424C116.038 430.561 120.054 440.339 119.168 461.436C118.03 488.58 108.624 519.409 109.673 537.59C109.916 541.85 110.48 546.418 111.274 555.03C112.049 563.397 115.305 571.29 115.221 574.28C114.989 582.857 99.8317 579.938 96.0304 579.674C91.4131 579.349 74.3424 577.295 75.6624 570.662C76.5224 566.333 81.0504 562.159 82.0051 554.79C82.5384 550.696 86.9997 541.888 86.6157 539.693C83.3117 520.837 68.5531 479.617 71.0664 455.9C73.3304 434.573 75.2171 423.888 73.9624 413.859C72.7291 404.005 73.9624 398.523 66.4384 378.216C55.4717 348.617 39.4077 290.501 44.3144 248.055Z" fill="#FBCDA3"/>
<path d="M20.0412 228.271C22.2345 228.249 26.1398 227.133 34.8785 214.863C44.1785 201.804 58.6079 163.292 64.2959 141.773C66.0252 135.233 74.0451 127.315 75.0371 125.323C87.4931 100.331 72.0998 92.6505 64.7225 94.3439C33.9612 101.407 4.27584 149.389 2.87451 213.268C2.79051 216.987 -0.513495 228.467 20.0412 228.271" fill="#FBCDA3"/>
<path d="M4.47282 285.325C3.93815 280.671 7.95549 279.988 10.6782 279.031C14.6888 277.623 21.4768 278.536 24.7048 282.573C27.0488 287.333 31.6661 285.996 36.2395 300.236C37.4675 304.063 38.7768 307.748 39.6115 311.148C39.6982 311.476 33.2661 311.352 31.4848 307.804C27.1701 299.252 26.0808 300.721 23.7235 297.869C24.5168 301.809 21.5688 307.189 27.1928 315.999C30.7475 321.565 34.9635 324.393 32.6315 327.167C30.2981 329.939 16.9675 323.771 8.65146 307.771C5.21146 301.153 2.67148 293.08 4.47282 285.325Z" fill="#FBCDA3"/>
<path d="M25.4235 284.408C24.5009 290.351 16.7569 289.148 14.1609 289.299C11.5609 289.444 5.31953 288.445 4.66486 284.007C4.25819 281.225 4.60217 277.924 4.17417 274.503C-0.799162 234.631 -2.10716 219.156 9.01284 202.812C11.4355 199.252 17.1569 193.175 22.6782 195.085C30.4502 197.769 33.3222 192.924 36.5142 221.697C39.0435 244.473 25.4222 284.411 25.4235 284.408" fill="#FBCDA3"/>
<path d="M183.885 175.999C189.448 161.196 186.461 148.536 181.2 131.068C177.891 120.088 178.447 107.997 182.105 95.5025C171.744 91.5852 152.703 88.2719 148.708 85.8265C140.349 80.7065 140.757 71.6412 142.096 62.8599C142.952 57.2465 132.861 57.3012 126.649 57.3559C125.064 57.3692 123.732 57.3825 122.899 57.3025V57.2092L121.676 57.2052H121.561L120.339 57.2092V57.3025C119.505 57.3825 118.173 57.3692 116.589 57.3559C110.377 57.3012 100.287 57.2465 101.143 62.8599C102.481 71.6412 102.889 80.7065 94.532 85.8265C90.5374 88.2719 71.4946 91.5852 61.1346 95.5025C64.7906 107.997 65.3466 120.088 62.04 131.068C56.7773 148.536 53.7907 161.196 59.3547 175.999C62.328 183.908 38.0066 222.379 44.468 273.129C44.7053 274.988 52.2266 274.467 61.44 273.945C71.8306 273.357 84.3733 272.769 91.0467 275.596C100.033 279.403 108.249 301.552 120.339 303.028V303.031L120.376 303.033C120.785 303.08 121.2 303.111 121.619 303.108C122.04 303.111 122.453 303.08 122.863 303.033L122.899 303.031V303.028C134.991 301.552 143.207 279.403 152.193 275.596C158.865 272.769 171.408 273.357 181.799 273.945C191.013 274.467 198.535 274.988 198.772 273.129C205.232 222.379 180.909 183.908 183.885 175.999Z" fill="#FBCDA3"/>
<path d="M156.333 23.4892C155.917 21.3625 156.576 19.4745 155.792 17.4039C155.201 15.8359 153.392 14.6039 152.454 13.2612C151.284 11.5852 150.906 10.2212 149.592 8.60523C148.137 6.82523 146.261 6.53052 144.288 5.49319C141.542 4.04785 140.413 2.55187 137.353 1.9372C132.108 0.879865 127.322 0.0278811 121.8 0.153214H121.44C115.917 0.0278811 111.13 0.879865 105.886 1.9372C102.826 2.55187 101.696 4.04785 98.9503 5.49319C96.9783 6.53052 95.101 6.82523 93.6476 8.60523C92.3303 10.2212 91.953 11.5852 90.7836 13.2612C89.8463 14.6039 88.037 15.8359 87.445 17.4039C86.6623 19.4745 87.321 21.3625 86.905 23.4892C86.5117 25.4892 85.4463 27.4772 85.6663 29.5599C85.8863 31.6159 87.1543 33.3812 86.777 35.6145C86.4077 37.8279 87.0357 40.1559 88.213 42.2492C89.793 45.0625 88.5037 46.3345 89.5943 49.3039C90.869 52.7865 92.6543 56.1865 95.2437 59.1119C98.1503 62.3985 102.142 65.0972 106.874 66.1465L121.44 66.7639H121.8L136.365 66.1465C141.097 65.0972 145.088 62.3985 147.994 59.1119C150.585 56.1865 152.369 52.7865 153.644 49.3039C154.733 46.3345 153.445 45.0625 155.026 42.2492C156.204 40.1559 156.832 37.8279 156.461 35.6145C156.085 33.3812 157.35 31.6159 157.57 29.5599C157.792 27.4772 156.725 25.4892 156.333 23.4892" fill="#795C48"/>
<path d="M147.707 41.8173C147.707 41.8173 149.579 37.9079 150.876 40.6946C153.267 45.8412 148.551 52.6612 148.467 53.7706C148.387 54.8786 147.707 41.8173 147.707 41.8173" fill="#FBCDA3"/>
<path d="M95.5298 41.8173C95.5298 41.8173 93.6591 37.9079 92.3604 40.6946C89.9711 45.8412 94.6871 52.6612 94.7711 53.7706C94.8498 54.8786 95.5298 41.8173 95.5298 41.8173" fill="#FBCDA3"/>
<path d="M142.03 63.3305C137.61 64.6519 132.423 66.1786 131.255 66.9892C128.838 68.6639 124.066 70.1879 121.976 70.3399V70.3039L121.656 70.3546L121.619 70.3492L121.583 70.3546L121.264 70.3039V70.3399C119.174 70.1879 114.4 68.6639 111.986 66.9892C110.816 66.1786 105.631 64.6519 101.211 63.3305C101.923 68.1332 102.706 71.3212 101.5 75.5585C106.302 81.4119 114.199 87.7852 121.583 87.7852L121.619 87.7825L121.656 87.7852C129.042 87.7852 136.936 81.4119 141.738 75.5585C140.534 71.3212 141.318 68.1332 142.03 63.3305" fill="#EAC097"/>
<path d="M147.245 37.9932C144.985 32.3559 145.603 29.1732 144.629 25.9066C143.618 22.5106 142.882 21.1399 141.201 20.3439C139.214 19.4012 136.953 19.7466 132.657 20.0906C129.974 20.3052 126.497 20.5213 121.798 20.4226H121.441C116.741 20.5213 113.263 20.3052 110.581 20.0906C106.285 19.7466 104.023 19.4012 102.038 20.3439C100.355 21.1399 99.6192 22.5106 98.6085 25.9066C97.6352 29.1732 98.2539 32.3559 95.9939 37.9932C90.6619 51.2879 95.6232 58.4186 97.8432 65.6452C99.9179 72.3906 109.466 82.8399 121.441 82.8399H121.798C133.773 82.8399 143.321 72.3906 145.394 65.6452C147.614 58.4186 152.577 51.2879 147.245 37.9932" fill="#FBCDA3"/>
<path d="M121.631 56.5852H121.619H121.61C119.067 56.4372 116.735 56.0718 115.107 54.8918C116.163 55.3052 118.853 55.5132 121.539 55.5132L121.619 55.5119L121.702 55.5132C124.387 55.5132 127.077 55.3052 128.133 54.8918C126.503 56.0718 124.171 56.4372 121.631 56.5852" fill="#E8BD96"/>
<path d="M128.43 66.1986C126.43 65.7412 125.726 64.9852 123.06 64.5986C122.403 64.4972 122.056 64.8746 121.619 64.9533C121.183 64.8746 120.835 64.4972 120.179 64.5986C117.512 64.9852 116.811 65.7412 114.811 66.1986C114.579 66.2519 114.16 66.2119 114.059 66.3439C113.864 66.6013 115.504 67.6772 116.315 68.0092C117.203 68.3786 119.423 68.7706 121.619 68.7719C123.818 68.7706 126.036 68.3786 126.926 68.0092C127.735 67.6772 129.375 66.6013 129.179 66.3439C129.08 66.2119 128.662 66.2519 128.43 66.1986" fill="#ECB593"/>
<path d="M128.429 66.1986C126.429 65.7412 125.725 64.9852 123.06 64.5986C122.403 64.4972 122.056 64.8746 121.619 64.9532C121.183 64.8746 120.835 64.4972 120.179 64.5986C117.512 64.9852 116.811 65.7412 114.811 66.1986C114.579 66.2519 114.16 66.2119 114.059 66.3439L114.063 66.4106C114.175 66.4292 114.347 66.4439 114.635 66.4239C114.643 66.4239 118.385 65.8199 120.097 66.4692C120.56 66.6466 121.255 66.6972 121.591 66.7106H121.648C121.985 66.6972 122.677 66.6466 123.141 66.4692C124.853 65.8199 128.596 66.4239 128.605 66.4239C128.892 66.4439 129.064 66.4292 129.176 66.4106L129.179 66.3439C129.08 66.2119 128.661 66.2519 128.429 66.1986" fill="#E1AE8D"/>
<path d="M139.944 41.8132C139.944 41.8132 137.143 44.3385 134.395 44.4105C130.094 44.5225 129.186 43.0852 129.186 43.0852C129.186 43.0852 129.614 39.9238 133.643 40.0998C137.47 40.2665 139.944 41.8132 139.944 41.8132" fill="white"/>
<path d="M136.082 42.4759C136.142 41.2879 135.24 40.2772 134.044 40.1345L133.812 40.1146C132.568 40.0906 131.518 41.0306 131.458 42.2519C131.414 43.1639 131.936 43.9732 132.719 44.3665C133.212 44.4065 133.762 44.4266 134.394 44.4106C134.544 44.4066 134.692 44.3706 134.843 44.3519C135.544 43.9932 136.039 43.3012 136.082 42.4759" fill="#3871C1"/>
<path d="M133.699 43.8185C134.526 43.8585 135.225 43.2399 135.266 42.4372C135.307 41.6345 134.668 40.9479 133.844 40.9092C133.019 40.8679 132.32 41.4892 132.279 42.2918C132.239 43.0945 132.875 43.7785 133.699 43.8185" fill="#231F20"/>
<path d="M135.354 42.0092C135.342 42.2346 135.144 42.4092 134.904 42.3959C134.666 42.3852 134.48 42.1932 134.493 41.9679L134.501 41.8186C134.51 41.5919 134.716 41.4186 134.949 41.4306C135.19 41.4412 135.374 41.6346 135.364 41.8599L135.354 42.0092Z" fill="white"/>
<path d="M129.186 43.0852C129.446 41.9839 129.758 40.9545 130.884 40.5039C134.904 38.8905 139.075 41.5332 139.916 41.7199C138.795 41.8639 137.518 41.0159 136.015 40.8012C132.678 40.3225 130.395 40.4039 129.186 43.0852" fill="#91816F"/>
<path d="M128.142 37.4999C127.859 34.7105 134.394 34.6626 136.423 34.9452C139.375 35.2172 141.107 36.6705 140.818 37.5279C138.438 36.9412 138.323 36.6292 135.466 36.6705C130.118 36.7492 128.288 38.9479 128.142 37.4999" fill="#8F8780"/>
<path d="M103.297 41.8132C103.297 41.8132 106.098 44.3385 108.845 44.4105C113.148 44.5225 114.054 43.0852 114.054 43.0852C114.054 43.0852 113.626 39.9238 109.598 40.0998C105.772 40.2665 103.297 41.8132 103.297 41.8132" fill="white"/>
<path d="M107.157 42.4759C107.097 41.2879 107.998 40.2772 109.194 40.1345L109.426 40.1146C110.668 40.0906 111.72 41.0306 111.78 42.2519C111.825 43.1639 111.302 43.9732 110.52 44.3665C110.026 44.4065 109.476 44.4266 108.844 44.4106C108.694 44.4066 108.545 44.3706 108.393 44.3519C107.694 43.9932 107.2 43.3012 107.157 42.4759" fill="#3871C1"/>
<path d="M109.54 43.8185C108.715 43.8585 108.013 43.2399 107.975 42.4372C107.933 41.6345 108.571 40.9479 109.395 40.9092C110.221 40.8679 110.92 41.4892 110.96 42.2918C111 43.0945 110.365 43.7785 109.54 43.8185" fill="#231F20"/>
<path d="M107.887 42.0092C107.896 42.2346 108.098 42.4092 108.336 42.3959C108.574 42.3852 108.76 42.1932 108.748 41.9679L108.74 41.8186C108.728 41.5919 108.526 41.4186 108.291 41.4306C108.05 41.4412 107.866 41.6346 107.878 41.8599L107.887 42.0092" fill="white"/>
<path d="M114.054 43.0852C113.794 41.9839 113.483 40.9545 112.356 40.5039C108.335 38.8905 104.164 41.5332 103.324 41.7199C104.444 41.8639 105.723 41.0159 107.224 40.8012C110.562 40.3225 112.843 40.4039 114.054 43.0852" fill="#91816F"/>
<path d="M115.098 37.4999C115.381 34.7105 108.845 34.6626 106.817 34.9452C103.865 35.2172 102.132 36.6705 102.422 37.5279C104.802 36.9412 104.917 36.6292 107.773 36.6705C113.12 36.7492 114.95 38.9479 115.098 37.4999Z" fill="#8F8780"/>
<path d="M183.636 177.748L183.634 177.745C183.633 177.448 183.652 177.176 183.681 176.92L183.692 176.781C183.734 176.496 183.796 176.233 183.885 175.998C184.19 175.182 184.465 174.373 184.721 173.568C184.762 173.436 184.801 173.304 184.841 173.172C185.61 170.669 186.141 168.217 186.464 165.777L186.517 165.926V165.924L186.518 165.926C187.61 158.718 187.058 151.408 184.757 144.484C181.112 133.525 177.502 127.633 175.62 115.398C175.458 114.337 175.133 113.301 174.91 112.228L174.898 112.162C174.772 111.542 174.648 110.919 174.53 110.285C174.434 109.765 174.341 109.233 174.253 108.701C174.205 108.416 174.153 108.136 174.106 107.847C173.185 102.539 172.578 97.2238 172.505 92.5278L172.361 92.4892C171.833 92.3478 171.301 92.2065 170.766 92.0665C170.609 92.0265 170.45 91.9852 170.294 91.9452C169.825 91.8225 169.352 91.6998 168.88 91.5785C168.646 91.5198 168.416 91.4612 168.184 91.4025C167.844 91.3158 167.506 91.2305 167.168 91.1452C164.634 90.5092 162.126 89.8958 159.8 89.3118C159.025 89.1158 158.27 88.9238 157.541 88.7345C157.601 110.518 142.87 128.953 124.117 130.425C123.934 130.437 123.752 130.454 123.568 130.465C123.288 130.481 123.001 130.485 122.717 130.492C122.352 130.502 121.989 130.519 121.618 130.519C121.249 130.519 120.886 130.502 120.521 130.492C120.236 130.485 119.949 130.481 119.669 130.465C119.486 130.454 119.304 130.437 119.12 130.425C100.368 128.953 85.637 110.518 85.697 88.7345C84.9676 88.9238 84.213 89.1158 83.4383 89.3118C81.1103 89.8958 78.6036 90.5092 76.069 91.1452C75.7303 91.2305 75.393 91.3158 75.0543 91.4025C74.8223 91.4612 74.5916 91.5198 74.3583 91.5785C73.8863 91.6998 73.413 91.8225 72.9436 91.9452C72.7863 91.9852 72.629 92.0265 72.4716 92.0665C71.937 92.2065 71.405 92.3478 70.877 92.4892L70.7317 92.5278C70.6597 97.2238 70.053 102.539 69.1317 107.847C69.085 108.136 69.033 108.416 68.985 108.701C68.8957 109.233 68.805 109.765 68.7076 110.285C68.5903 110.919 68.4663 111.542 68.3383 112.162L68.3276 112.228C68.105 113.301 67.7783 114.337 67.617 115.398C65.7343 127.633 62.125 133.525 58.481 144.484C56.1783 151.408 55.6263 158.718 56.7196 165.926L56.721 165.924V165.926L56.7743 165.777C57.097 168.217 57.6263 170.669 58.3957 173.172C58.437 173.304 58.4756 173.436 58.517 173.568C58.773 174.373 59.0476 175.182 59.353 175.998C59.4423 176.233 59.5023 176.496 59.5463 176.781L59.5556 176.92C59.5863 177.176 59.6049 177.448 59.6036 177.745L59.6023 177.748C59.533 187.577 42.073 218.938 43.4636 260.41C43.4076 262.521 43.401 264.661 43.425 266.818C68.685 295.69 110.229 298.414 119.746 298.67C120.73 298.697 121.373 298.697 121.618 298.697C121.865 298.697 122.506 298.697 123.492 298.67C133.008 298.414 174.553 295.69 199.813 266.818C199.836 264.661 199.83 262.521 199.774 260.41C201.165 218.938 183.705 187.577 183.636 177.748" fill="#DBEFF5"/>
<path d="M189.93 270.355C172.024 282.36 150.944 294.576 121.618 294.796C92.2929 294.576 71.2156 282.36 53.3089 270.355C49.9809 268.124 46.6182 266.099 43.4089 264.337C43.4036 265.985 43.4289 267.649 43.4676 269.323C43.4756 269.64 43.4863 269.959 43.4943 270.276C43.5369 271.748 43.5943 273.228 43.6689 274.716C43.6796 274.937 43.6889 275.157 43.7009 275.379C43.7929 277.109 43.9049 278.851 44.0396 280.597C44.0502 280.725 44.0609 280.853 44.0716 280.98C44.1943 282.561 44.3356 284.148 44.4916 285.74C44.5249 286.077 44.5583 286.413 44.593 286.751C44.7623 288.416 44.9436 290.083 45.1436 291.753L45.1596 291.871C45.3716 293.64 45.6063 295.415 45.8529 297.188C45.8889 297.457 45.9303 297.727 45.9689 297.997C46.1836 299.507 46.4089 301.019 46.6463 302.527C46.6943 302.821 46.7383 303.117 46.7863 303.413C47.0649 305.161 47.3556 306.911 47.6636 308.652C54.8369 310.072 63.5423 311.381 73.9623 312.297C94.681 314.12 115.222 311.256 121.55 310.24V310.181C121.594 307.821 121.618 305.461 121.618 303.108C121.618 305.461 121.645 307.821 121.689 310.181V310.24C128.016 311.256 148.557 314.12 169.277 312.297C179.696 311.381 188.401 310.072 195.574 308.652C195.882 306.911 196.173 305.161 196.452 303.413C196.5 303.117 196.545 302.821 196.593 302.527C196.83 301.019 197.056 299.507 197.27 297.997C197.309 297.727 197.348 297.457 197.386 297.188C197.633 295.415 197.868 293.64 198.08 291.871L198.094 291.753C198.294 290.083 198.477 288.416 198.646 286.751C198.678 286.413 198.713 286.077 198.746 285.74C198.901 284.148 199.045 282.561 199.166 280.98C199.176 280.853 199.189 280.725 199.2 280.597C199.333 278.851 199.445 277.109 199.538 275.379C199.55 275.157 199.557 274.937 199.569 274.716C199.645 273.228 199.702 271.748 199.744 270.276C199.753 269.959 199.764 269.64 199.77 269.323C199.81 267.649 199.833 265.985 199.83 264.337C196.62 266.099 193.258 268.124 189.93 270.355" fill="#3C44A2"/>
</svg>
