<svg width="199" height="581" viewBox="0 0 199 581" fill="none" xmlns="http://www.w3.org/2000/svg">
<path d="M40.8677 146.76C26.2424 115.223 32.7384 99.5945 32.7384 99.5945C37.0237 98.7412 41.1757 96.3972 52.9664 92.5825C62.049 89.6439 72.9184 88.5079 76.765 82.8092C80.641 77.0652 80.6104 75.0799 80.961 66.6292C81.257 59.5079 94.2984 57.6945 98.3984 57.3012V57.2065L99.621 57.2025H99.7357L100.958 57.2065V57.3012C105.058 57.6945 118.1 59.5079 118.396 66.6292C118.746 75.0799 118.716 77.0652 122.592 82.8092C126.438 88.5079 137.308 89.6439 146.392 92.5825C158.181 96.3972 162.333 98.7412 166.618 99.5945C166.618 99.5945 173.114 115.223 158.489 146.76C157.66 148.548 156.154 162.784 152.15 172.357C144.408 190.864 147.345 214.291 147.077 225.695C146.848 235.521 148.441 235.649 150.11 241.02C153.565 252.131 154.946 258.164 156.094 277.211C156.209 279.116 153.181 277.608 148.614 276.1C143.632 274.456 136.818 272.811 130.252 275.593C121.265 279.4 113.049 301.551 100.958 303.028V303.029L100.922 303.032C100.512 303.08 100.098 303.109 99.6784 303.108C99.2584 303.109 98.845 303.08 98.4344 303.032L98.3984 303.029V303.028C86.3077 301.551 78.0917 279.4 69.105 275.593C62.5384 272.811 55.725 274.456 50.7437 276.1C46.1757 277.608 43.1477 279.116 43.2624 277.211C44.4104 258.164 45.7917 252.131 49.2464 241.02C50.917 235.649 52.509 235.521 52.2797 225.695C52.0117 214.291 54.949 190.864 47.2064 172.357C43.2024 162.784 41.6957 148.548 40.8677 146.76" fill="#FBCDA3"/>
<path d="M80.8125 70.0639C80.8312 69.6426 80.8498 69.2039 80.8698 68.7426C80.8698 68.7439 80.8712 68.7453 80.8725 68.7466C80.8525 69.2066 80.8338 69.6452 80.8125 70.0639" fill="#E9E8E8"/>
<path d="M99.7027 84.3146C93.1667 84.3146 84.712 77.2612 80.748 71.3572C80.772 70.9452 80.7934 70.5159 80.8134 70.0639C80.8347 69.6452 80.8534 69.2066 80.8734 68.7466C82.7467 71.5092 85.7534 73.3586 91.0014 76.9586C93.2414 78.4959 97.732 79.8826 99.5334 79.9532L99.6787 79.9599L99.824 79.9532C101.625 79.8826 106.117 78.4959 108.357 76.9586C113.549 73.3959 116.547 71.5479 118.425 68.8332C118.461 69.7119 118.497 70.5133 118.537 71.2559C114.585 77.1613 106.192 84.3146 99.7027 84.3146" fill="#E5BB94"/>
<path d="M108.413 388.046C108.604 383.484 109.485 378.61 108.697 373.71C105.139 351.617 103.885 323.452 104.008 302.197C104.076 290.622 104.551 281.092 105.287 275.724C106.775 264.876 103.165 257.094 130.069 251.916C144.912 249.06 150.22 246.753 152.392 248.882C153.176 251.909 153.805 254.896 154.333 258.389C154.971 265.34 155.557 271.68 156.077 277.53C159.359 314.436 159.972 332.697 153.565 372.858C151.516 385.712 142.396 408.88 143.475 418.933C144.547 428.984 146.836 439.833 146.605 455.62C146.259 479.469 135.087 499.561 134.681 539.692C134.66 541.918 138.76 550.694 139.292 554.789C140.249 562.159 144.776 566.332 145.636 570.661C146.955 577.293 129.885 579.348 125.267 579.673C121.467 579.937 111.855 583.217 111.623 574.64C111.537 571.652 114.795 563.757 115.569 555.392C116.363 546.781 116.927 542.211 117.169 537.952C118.22 519.769 108.052 488.47 106.915 461.326C106.028 440.23 110.044 430.452 110.783 419.316C111.389 410.16 107.769 403.613 108.413 388.046" fill="#FBCDA3"/>
<path d="M43.279 277.53L43.263 277.21C43.7577 269.002 44.2963 263.212 45.0257 258.389C45.5537 254.896 46.1817 251.909 46.9657 248.882C49.139 246.753 54.4457 249.06 69.2883 251.916C96.1923 257.094 92.5843 264.876 94.071 275.724C94.807 281.092 95.2804 290.622 95.3484 302.197C95.4737 323.452 94.2203 351.617 90.6603 373.71C89.8723 378.61 90.7537 383.484 90.9444 388.046C91.5884 403.613 87.9684 410.16 88.575 419.316C89.3137 430.452 93.3297 440.23 92.4444 461.326C91.3057 488.47 81.139 519.769 82.1883 537.952C82.431 542.211 82.995 546.781 83.7883 555.392C84.563 563.757 87.8203 571.652 87.735 574.64C87.503 583.217 77.891 579.937 74.091 579.673C69.4723 579.348 52.403 577.293 53.7217 570.661C54.583 566.332 59.1097 562.159 60.0657 554.789C60.5977 550.694 64.6977 541.918 64.6764 539.692C64.271 499.561 53.099 479.469 52.7523 455.62C52.5217 439.833 54.811 428.984 55.883 418.933C56.9603 408.88 47.8417 385.712 45.7923 372.858C39.3883 332.697 40.0003 314.436 43.279 277.53" fill="#FBCDA3"/>
<path d="M8.81406 224.596C7.30473 228.643 12.2581 231.78 16.9594 232.72C19.1114 233.147 22.7994 230.627 29.4767 217.124C36.5834 202.752 44.7034 162.437 46.8994 140.287C47.5661 133.555 54.4687 124.524 54.8874 122.337C57.7661 107.3 49.6261 96.8945 49.3861 93.7732C40.1394 94.1465 23.1194 96.6412 18.4127 111.46C17.1434 115.455 14.8687 121.319 14.9887 133.532C15.0807 142.844 14.1607 147.979 10.1834 160.369C5.85673 173.849 5.85673 199.213 5.96206 213.827C5.98873 217.547 9.92073 221.633 8.81406 224.596" fill="#FBCDA3"/>
<path d="M3.43512 287.995C3.39246 282.981 7.66846 282.664 10.6205 281.921C14.9725 280.832 16.5178 281.819 19.4458 286.448C21.3671 291.759 26.3431 290.807 29.5418 306.444C30.4018 310.645 31.3605 314.708 31.8551 318.417C31.9098 318.775 28.4845 319.927 27.0165 315.968C23.4551 306.416 22.1525 307.871 20.0058 304.595C20.3965 308.873 18.8791 313.036 23.7805 322.995C26.8791 329.288 30.9711 332.731 28.2258 335.447C25.4778 338.161 12.2258 330.228 5.30713 312.333C2.4458 304.932 0.688458 296.072 3.43512 287.995" fill="#FBCDA3"/>
<path d="M19.6379 287.5V287.494C18.5392 293.409 15.3685 293.49 12.7685 293.564C10.1672 293.634 3.9552 292.452 3.43387 287.994C3.10853 285.202 3.54854 281.915 3.22187 278.48C-0.574129 238.479 -1.42613 222.972 10.1725 206.964C12.6979 203.477 18.5952 197.571 24.0592 199.643C32.1059 202.691 31.3272 216.869 31.2152 221.257C30.5939 245.812 22.4632 265.873 19.8912 281.747C19.4779 284.299 19.5152 286.097 19.6379 287.5" fill="#FBCDA3"/>
<path d="M190.543 224.596C192.054 228.643 187.099 231.78 182.398 232.72C180.246 233.147 176.558 230.627 169.881 217.124C162.774 202.752 154.654 162.437 152.458 140.287C151.791 133.555 144.889 124.524 144.471 122.337C141.591 107.3 149.731 96.8945 149.971 93.7732C159.218 94.1465 176.238 96.6412 180.945 111.46C182.214 115.455 184.489 121.319 184.369 133.532C184.277 142.844 185.197 147.979 189.174 160.369C193.501 173.849 193.501 199.213 193.395 213.827C193.369 217.547 189.437 221.633 190.543 224.596" fill="#FBCDA3"/>
<path d="M195.923 287.995C195.965 282.981 191.689 282.664 188.737 281.921C184.387 280.832 182.84 281.819 179.912 286.448C177.991 291.759 173.015 290.807 169.816 306.444C168.956 310.645 167.999 314.708 167.503 318.417C167.448 318.775 170.873 319.927 172.341 315.968C175.903 306.416 177.205 307.871 179.352 304.595C178.961 308.873 180.479 313.036 175.577 322.995C172.48 329.288 168.387 332.731 171.132 335.447C173.88 338.161 187.132 330.228 194.051 312.333C196.912 304.932 198.669 296.072 195.923 287.995" fill="#FBCDA3"/>
<path d="M179.72 287.5V287.494C180.818 293.409 183.988 293.49 186.588 293.564C189.19 293.634 195.402 292.452 195.923 287.994C196.248 285.202 195.808 281.915 196.135 278.48C199.931 238.479 200.783 222.972 189.184 206.964C186.659 203.477 180.762 197.571 175.298 199.643C167.251 202.691 168.03 216.869 168.142 221.257C168.763 245.812 176.894 265.873 179.466 281.747C179.879 284.299 179.842 286.097 179.72 287.5" fill="#FBCDA3"/>
<path d="M69.7031 23.5065C70.0631 21.3665 69.4925 19.4639 70.1725 17.3785C70.6858 15.8012 72.2565 14.5585 73.0698 13.2092C74.0858 11.5212 74.4125 10.1479 75.5565 8.52119C76.8165 6.72919 78.4458 6.43319 80.1591 5.38786C82.5405 3.93186 83.5218 2.42521 86.1778 1.80654C90.7298 0.743876 94.8845 -0.114819 99.6778 0.0105143C104.471 -0.114819 108.626 0.743876 113.178 1.80654C115.834 2.42521 116.815 3.93186 119.196 5.38786C120.91 6.43319 122.539 6.72919 123.799 8.52119C124.943 10.1479 125.268 11.5212 126.286 13.2092C127.099 14.5585 128.668 15.8012 129.183 17.3785C129.863 19.4639 129.292 21.3665 129.652 23.5065C129.994 25.5212 130.919 27.5226 130.724 29.6199C130.535 31.6892 129.438 33.4665 129.763 35.7145C130.083 37.9425 129.539 40.2865 128.518 42.3945C127.146 45.2279 128.263 46.5079 127.318 49.4972C126.211 53.0039 124.663 56.4265 122.416 59.3732C119.892 62.6825 116.427 65.3986 112.32 66.4559L99.6778 67.0772L87.0365 66.4559C82.9285 65.3986 79.4631 62.6825 76.9405 59.3732C74.6925 56.4265 73.1431 53.0039 72.0378 49.4972C71.0911 46.5079 72.2098 45.2279 70.8378 42.3945C69.8165 40.2865 69.2711 37.9425 69.5925 35.7145C69.9191 33.4665 68.8205 31.6892 68.6298 29.6199C68.4365 27.5226 69.3618 25.5212 69.7031 23.5065Z" fill="#795C48"/>
<path d="M76.609 42.4892C76.609 42.4892 74.5783 38.9879 73.857 41.8652C72.525 47.1812 77.2596 53.0772 77.4676 54.1345C77.6703 55.1932 76.609 42.4892 76.609 42.4892Z" fill="#FBCDA3"/>
<path d="M122.748 42.4892C122.748 42.4892 124.779 38.9879 125.5 41.8652C126.832 47.1812 122.097 53.0772 121.889 54.1345C121.685 55.1932 122.748 42.4892 122.748 42.4892Z" fill="#FBCDA3"/>
<path d="M77.886 26.8572C78.7686 23.5425 79.41 22.2052 80.8767 21.4265C82.57 20.5278 85.1793 20.9545 89.3166 21.3798C92.0473 21.6625 95.442 21.9439 99.678 21.8452C103.914 21.9439 107.309 21.6625 110.038 21.3798C114.175 20.9545 116.786 20.5278 118.479 21.4265C119.946 22.2052 120.587 23.5425 121.47 26.8572C122.318 30.0465 123.799 33.8772 123.799 38.8892C123.799 48.0665 122.499 56.6092 120.367 64.4439C118.787 70.2385 115.869 71.8038 108.357 76.9585C106.117 78.4958 101.625 79.8825 99.8233 79.9532L99.678 79.9598L99.5326 79.9532C97.7313 79.8825 93.2406 78.4958 91.0007 76.9585C83.4873 71.8038 80.5673 70.2385 78.99 64.4439C76.8553 56.6092 75.5566 48.0665 75.5566 38.8892C75.5566 33.8772 77.038 30.0465 77.886 26.8572" fill="#FBCDA3"/>
<path d="M99.671 56.5826C97.6456 56.4346 95.7856 56.0693 94.4883 54.8893C95.3296 55.3026 97.4723 55.5106 99.615 55.5106C101.815 55.5106 103.956 55.3026 104.799 54.8893C103.499 56.0693 101.639 56.4346 99.671 56.5826Z" fill="#E8BD96"/>
<path d="M92.8701 66.4585C94.8701 66.0465 95.5728 65.3692 98.2381 65.0212C98.8981 64.9292 99.2461 65.2732 99.6848 65.3412C100.125 65.2732 100.473 64.9292 101.131 65.0212C103.797 65.3692 104.501 66.0465 106.499 66.4585C106.73 66.5052 107.15 66.4706 107.251 66.5892C107.445 66.8199 105.806 67.7866 104.997 68.0852C104.106 68.4159 101.885 68.7692 99.6848 68.7692C97.4861 68.7692 95.2635 68.4159 94.3741 68.0852C93.5635 67.7866 91.9248 66.8199 92.1194 66.5892C92.2194 66.4706 92.6381 66.5052 92.8701 66.4585" fill="#ECB593"/>
<path d="M92.8698 66.4586C94.8698 66.0466 95.5725 65.3692 98.2378 65.0212C98.8978 64.9292 99.2458 65.2732 99.6845 65.3412L99.7032 65.3359L99.7218 65.3412C100.16 65.2732 100.507 64.9292 101.167 65.0212C103.834 65.3692 104.535 66.0466 106.535 66.4586C106.768 66.5052 107.186 66.4706 107.288 66.5892L107.283 66.6479C107.17 66.6666 106.998 66.6786 106.712 66.6612C106.703 66.6612 102.962 66.1172 101.25 66.7012C100.785 66.8612 100.091 66.9066 99.7551 66.9186H99.6498C99.3138 66.9066 98.6205 66.8612 98.1565 66.7012C96.4445 66.1172 92.7031 66.6612 92.6938 66.6612C92.4071 66.6786 92.2338 66.6666 92.1231 66.6479L92.1191 66.5892C92.2191 66.4706 92.6378 66.5052 92.8698 66.4586" fill="#E1AE8D"/>
<path d="M81.3555 41.8106C81.3555 41.8106 84.1555 44.3359 86.9021 44.4066C91.2048 44.5199 92.1115 43.0826 92.1115 43.0826C92.1115 43.0826 91.6848 39.9213 87.6555 40.0973C83.8288 40.2639 81.3555 41.8106 81.3555 41.8106Z" fill="white"/>
<path d="M85.2157 42.4732C85.1557 41.2852 86.057 40.2746 87.253 40.1332L87.485 40.1119C88.7277 40.0879 89.7784 41.0292 89.8384 42.2492C89.8837 43.1612 89.3611 43.9706 88.5797 44.3639C88.0851 44.4039 87.5357 44.4239 86.9024 44.4066C86.753 44.4039 86.605 44.3679 86.453 44.3492C85.753 43.9906 85.2584 43.2999 85.2157 42.4732" fill="#3871C1"/>
<path d="M87.5998 43.8159C86.7732 43.8559 86.0732 43.2372 86.0332 42.4346C85.9918 41.6319 86.6291 40.9452 87.4545 40.9066C88.2785 40.8666 88.9785 41.4866 89.0185 42.2893C89.0585 43.0919 88.4238 43.7759 87.5998 43.8159" fill="#231F20"/>
<path d="M85.9441 42.0066C85.9561 42.2319 86.1561 42.4065 86.3961 42.3932C86.6334 42.3825 86.8201 42.1905 86.8068 41.9652L86.8001 41.8159C86.7881 41.5892 86.5841 41.4159 86.3494 41.4279C86.1094 41.4385 85.9241 41.6319 85.9361 41.8572L85.9441 42.0066" fill="white"/>
<path d="M92.1121 43.0826C91.8521 41.9812 91.5415 40.9519 90.4161 40.5012C86.3948 38.8879 82.2228 41.5306 81.3828 41.7172C82.5041 41.8612 83.7815 41.0132 85.2828 40.7986C88.6201 40.3199 90.9028 40.4012 92.1121 43.0826Z" fill="#91816F"/>
<path d="M118.193 41.8106C118.193 41.8106 115.394 44.3359 112.647 44.4066C108.346 44.5199 107.438 43.0826 107.438 43.0826C107.438 43.0826 107.864 39.9213 111.895 40.0973C115.721 40.2639 118.193 41.8106 118.193 41.8106" fill="white"/>
<path d="M114.333 42.4732C114.393 41.2852 113.493 40.2746 112.297 40.1332L112.064 40.1119C110.821 40.0879 109.772 41.0292 109.709 42.2492C109.667 43.1612 110.187 43.9706 110.969 44.3639C111.464 44.4039 112.015 44.4239 112.647 44.4066C112.797 44.4039 112.947 44.3679 113.095 44.3492C113.795 43.9906 114.291 43.2999 114.333 42.4732" fill="#3871C1"/>
<path d="M111.949 43.8159C112.777 43.8559 113.476 43.2372 113.516 42.4346C113.556 41.6319 112.92 40.9452 112.094 40.9066C111.269 40.8666 110.57 41.4866 110.529 42.2893C110.489 43.0919 111.124 43.7759 111.949 43.8159" fill="#231F20"/>
<path d="M113.605 42.0066C113.593 42.2319 113.393 42.4065 113.154 42.3932C112.917 42.3825 112.731 42.1905 112.741 41.9652L112.749 41.8159C112.761 41.5892 112.963 41.4159 113.201 41.4279C113.441 41.4385 113.623 41.6319 113.613 41.8572L113.605 42.0066Z" fill="white"/>
<path d="M107.438 43.0826C107.697 41.9812 108.007 40.9519 109.135 40.5012C113.155 38.8879 117.327 41.5306 118.167 41.7172C117.047 41.8612 115.769 41.0132 114.265 40.7986C110.928 40.3199 108.647 40.4012 107.438 43.0826" fill="#91816F"/>
<path d="M93.1566 37.4972C93.4392 34.7079 86.9032 34.6599 84.8752 34.9425C81.9232 35.2145 80.1912 36.6679 80.4806 37.5252C82.8606 36.9385 82.9752 36.6265 85.8312 36.6679C91.1792 36.7452 93.0086 38.9452 93.1566 37.4972Z" fill="#8F8780"/>
<path d="M106.2 37.4972C105.918 34.7079 112.454 34.6599 114.482 34.9425C117.434 35.2145 119.166 36.6679 118.876 37.5252C116.498 36.9385 116.382 36.6265 113.526 36.6679C108.178 36.7452 106.348 38.9452 106.2 37.4972Z" fill="#8F8780"/>
<path d="M123.04 42.2292C123.04 42.2292 125.747 39.2425 126.707 41.6985C128.481 46.2332 122.173 51.2639 121.9 52.1665C121.628 53.0705 123.04 42.2292 123.04 42.2292Z" fill="#FBCDA3"/>
<path d="M52.1121 133.536C52.5694 120.067 49.9388 101.528 49.4628 93.7492L49.5401 93.7226C50.0455 93.5493 50.5641 93.3746 51.1001 93.1959C51.7041 92.9946 52.3188 92.7919 52.9668 92.5826C54.4068 92.1172 55.8908 91.6999 57.3841 91.2986C57.5654 91.2492 57.7454 91.2012 57.9268 91.1532C58.8961 90.8959 59.8628 90.6452 60.8294 90.3959C61.2654 90.2839 61.7001 90.1693 62.1321 90.0559L62.1508 90.0519C66.2321 103.907 76.7774 129.555 98.9921 130.097V130.092L99.2521 130.105V130.103L99.4374 130.112L99.6788 130.121L99.9201 130.112L100.105 130.103V130.105L100.365 130.092V130.097C122.58 129.555 133.125 103.907 137.207 90.0519L137.225 90.0559C137.657 90.1693 138.092 90.2839 138.528 90.3959C139.495 90.6452 140.461 90.8959 141.431 91.1532C141.612 91.2012 141.792 91.2492 141.973 91.2986C143.467 91.6999 144.951 92.1172 146.391 92.5826C147.039 92.7919 147.653 92.9946 148.257 93.1959C148.793 93.3746 149.312 93.5493 149.817 93.7226L149.895 93.7492C149.419 101.528 146.788 120.067 147.245 133.536C147.787 149.527 151.297 159.345 155.445 161.619V161.62L155.444 161.624C155.236 162.519 155.013 163.421 154.777 164.323L154.752 164.42C154.521 165.3 154.275 166.177 154.016 167.044L153.965 167.216C153.704 168.079 153.431 168.929 153.14 169.759L153.093 169.888C152.795 170.736 152.483 171.563 152.151 172.357C144.408 190.864 147.345 214.291 147.077 225.695C146.848 235.521 148.441 235.649 150.111 241.02C150.337 241.751 150.556 242.46 150.765 243.153L150.771 243.168C150.976 243.848 151.173 244.511 151.364 245.163L151.387 245.24C151.572 245.873 151.748 246.496 151.919 247.112L151.949 247.223C152.116 247.831 152.277 248.432 152.432 249.033L152.461 249.149C152.613 249.747 152.76 250.343 152.901 250.941L152.933 251.071C153.072 251.667 153.207 252.268 153.336 252.876L153.365 253.011C153.493 253.625 153.619 254.248 153.739 254.881L153.76 254.995C153.88 255.636 153.996 256.292 154.108 256.964L154.12 257.036H45.2375L45.2508 256.964C45.3614 256.292 45.4774 255.636 45.5974 254.995L45.6188 254.881C45.7388 254.248 45.8641 253.625 45.9921 253.011L46.0215 252.876C46.1508 252.268 46.2841 251.667 46.4241 251.071L46.4561 250.941C46.5975 250.343 46.7441 249.747 46.8961 249.149L46.9254 249.033C47.0814 248.432 47.2415 247.831 47.4081 247.223L47.4388 247.112C47.6095 246.496 47.7855 245.873 47.9708 245.24L47.9934 245.163C48.1828 244.511 48.3815 243.848 48.5868 243.168L48.5921 243.153C48.8014 242.46 49.0201 241.751 49.2468 241.02C50.9174 235.649 52.5094 235.521 52.2801 225.695C52.0121 214.291 54.9495 190.864 47.2068 172.357C46.8748 171.563 46.5628 170.736 46.2641 169.888L46.2174 169.759C45.9268 168.929 45.6534 168.079 45.3921 167.216L45.3415 167.044C45.0828 166.177 44.8361 165.3 44.6055 164.42L44.5801 164.323C44.3441 163.421 44.1214 162.519 43.9134 161.624L43.9121 161.62V161.619C48.0601 159.345 51.5708 149.527 52.1121 133.536" fill="#DBEFF5"/>
<path d="M95.3309 310.064V310.148C95.3296 310.148 86.4002 315.108 64.6442 313.828C49.4749 312.936 41.1016 308.436 41.1016 308.436C41.1082 308.199 41.1176 307.964 41.1269 307.729C41.5002 298.651 42.2602 288.989 43.2789 277.531L43.2629 277.211C43.3202 276.256 43.3789 275.341 43.4376 274.449L43.4536 274.196C43.5149 273.275 43.5776 272.384 43.6416 271.525L43.6482 271.447C43.7136 270.573 43.7789 269.729 43.8469 268.917V268.915C43.8856 268.451 43.9256 268.017 43.9642 267.573C43.9962 267.229 44.0242 266.871 44.0562 266.537C44.1269 265.78 44.1989 265.048 44.2749 264.339L44.2762 264.325C44.3536 263.595 44.4322 262.888 44.5122 262.203L44.5136 262.196L44.5402 261.991C44.6056 261.445 44.6722 260.911 44.7429 260.391C44.7736 260.16 44.8056 259.939 44.8362 259.711C44.8882 259.349 44.9376 258.988 44.9909 258.637C45.1322 257.679 45.2816 256.755 45.4389 255.864L45.4429 255.845C45.5869 255.031 45.7389 254.239 45.8989 253.463V253.461C46.0589 252.684 46.2256 251.921 46.4029 251.167L46.4096 251.135C46.5842 250.384 46.7696 249.637 46.9642 248.889L46.9656 248.883C48.4456 249.596 64.2416 253.721 99.3589 253.729V253.723L99.6789 253.727L99.9989 253.723V253.729C135.118 253.721 150.912 249.596 152.392 248.883L152.395 248.896C152.59 249.641 152.774 250.385 152.948 251.135L152.955 251.167C153.132 251.921 153.299 252.684 153.458 253.46L153.459 253.463C153.619 254.239 153.771 255.031 153.915 255.845L153.918 255.864C154.072 256.733 154.218 257.632 154.358 258.563C154.438 259.095 154.515 259.636 154.59 260.193L154.614 260.379C154.69 260.939 154.762 261.513 154.832 262.104L154.851 262.259C154.924 262.869 154.994 263.5 155.063 264.148L155.095 264.447C155.163 265.103 155.23 265.775 155.295 266.471L155.312 266.655C155.38 267.385 155.446 268.133 155.511 268.912L155.512 268.923C155.575 269.688 155.638 270.481 155.699 271.3L155.724 271.641C155.782 272.443 155.842 273.267 155.898 274.119L155.922 274.467C155.98 275.353 156.038 276.261 156.095 277.211C156.103 277.332 156.095 277.439 156.078 277.533C157.098 288.997 157.858 298.66 158.232 307.743C158.239 307.971 158.25 308.201 158.256 308.436C158.256 308.436 149.884 312.936 134.714 313.828C112.956 315.108 104.027 310.148 104.027 310.148C104 307.415 103.995 304.752 104.01 302.197H104.008C103.614 302.36 103.21 302.489 102.806 302.615C102.199 302.797 101.586 302.951 100.959 303.027V303.029L100.923 303.032C100.512 303.08 100.099 303.109 99.6789 303.108C99.2589 303.109 98.8456 303.08 98.4349 303.032L98.3989 303.029V303.027C97.3549 302.9 96.3389 302.608 95.3482 302.197C95.3629 304.725 95.3576 307.36 95.3309 310.064" fill="#3C44A2"/>
</svg>
