<svg width="78" height="96" viewBox="0 0 78 96" fill="none" xmlns="http://www.w3.org/2000/svg">
<rect width="78" height="96" rx="16" fill="url(#paint0_radial)"/>
<path fill-rule="evenodd" clip-rule="evenodd" d="M16 0C7.16344 0 0 7.16345 0 16V80C0 88.8366 7.16344 96 16 96H62C70.8366 96 78 88.8366 78 80V16C78 7.16344 70.8366 0 62 0H16ZM38.9996 0.279999C58.3494 0.279999 77.3996 35.6955 77.3996 59.9972C77.3996 84.2989 63.742 95.6179 38.9996 95.6179C14.2573 95.6179 0.599609 84.2989 0.599609 59.9972C0.599609 35.6955 19.6498 0.279999 38.9996 0.279999ZM61.4 58.9494C61.4 43.3269 49.5132 22.6884 39 22.6884C28.4868 22.6884 16.6 43.3269 16.6 58.9494C16.6 74.572 23.0942 81.2997 39 81.2997C54.9058 81.2997 61.4 74.572 61.4 58.9494ZM39 40.7899C46.0692 40.7899 51.8 46.4186 51.8 53.3619C51.8 60.3052 46.0692 65.9339 39 65.9339C31.9307 65.9339 26.2 60.3052 26.2 53.3619C26.2 46.4186 31.9307 40.7899 39 40.7899Z" fill="white"/>
<defs>
<radialGradient id="paint0_radial" cx="0" cy="0" r="1" gradientUnits="userSpaceOnUse" gradientTransform="translate(39 48) rotate(90) scale(48 39)">
<stop stop-color="#22C88A"/>
<stop offset="1" stop-color="#22C88A"/>
</radialGradient>
</defs>
</svg>
